/* XPM */
static char *YmlyZA__[] = {
/* columns rows colors chars-per-pixel */
"50 50 181 2 ",
"   c #040203",
".  c #040A04",
"X  c #080806",
"o  c #050609",
"O  c #040A0A",
"+  c #0A0A0B",
"@  c #080509",
"#  c #0A140D",
"$  c #0A1706",
"%  c #090D10",
"&  c #041012",
"*  c #0D1213",
"=  c #0E1619",
"-  c #111F11",
";  c #141618",
":  c #131C1D",
">  c #191C19",
",  c #141618",
"<  c #192517",
"1  c #232F1D",
"2  c #1E1E20",
"3  c #1E2822",
"4  c #232A27",
"5  c #2B3923",
"6  c #2A342D",
"7  c #273728",
"8  c #2D3534",
"9  c #2B3638",
"0  c #343A34",
"q  c #39393B",
"w  c #6B1204",
"e  c #741012",
"r  c #4B2214",
"t  c #79230C",
"y  c #7D2414",
"u  c #4C3E33",
"i  c #792F22",
"p  c #3A443B",
"a  c #45503F",
"s  c #6B4B3C",
"d  c #424444",
"f  c #454A4A",
"g  c #4A4C4B",
"h  c #464B47",
"j  c #465643",
"k  c #494D51",
"l  c #4E5552",
"z  c #535C56",
"x  c #695448",
"c  c #72584B",
"v  c #5B635C",
"b  c #596357",
"n  c #616D5F",
"m  c #585D60",
"M  c #5D6363",
"N  c #636767",
"B  c #6B736D",
"V  c #687365",
"C  c #77776F",
"Z  c #6D7979",
"A  c #757676",
"S  c #787B7A",
"D  c #981A1A",
"F  c #94180C",
"G  c #9A2B0D",
"H  c #802812",
"J  c #962616",
"K  c #883018",
"L  c #A2311F",
"P  c #B7351D",
"I  c #833823",
"U  c #A82921",
"Y  c #B23A2A",
"T  c #89412D",
"R  c #974432",
"E  c #93503D",
"W  c #83493B",
"Q  c #A24732",
"!  c #8E4846",
"~  c #BA5946",
"^  c #9E796C",
"/  c #BD6863",
"(  c #C75C4A",
")  c #7A8179",
"_  c #B28872",
"`  c #798183",
"'  c #828583",
"]  c #8A8C8D",
"[  c #868C88",
"{  c #8C968A",
"}  c #879186",
"|  c #93978E",
" . c #878F91",
".. c #8D9292",
"X. c #969B9A",
"o. c #999B9B",
"O. c #929694",
"+. c #A19891",
"@. c #BE9990",
"#. c #9EA39E",
"$. c #A1A19F",
"%. c #9DA3A3",
"&. c #A1A2A1",
"*. c #A6AAA6",
"=. c #A4ABAC",
"-. c None",
";. c #A5A6A8",
":. c #B8B7AA",
">. c #ACB2B3",
",. c #AEB1BA",
"<. c #B2B4B3",
"1. c #B3B7BB",
"2. c #B5B9BD",
"3. c #BABCB9",
"4. c #CDA79A",
"5. c #DBAD9E",
"6. c #C2AEA3",
"7. c #C9B2A2",
"8. c #C9BBB8",
"9. c #E1ACA8",
"0. c #BDC3BD",
"q. c #B5C0BA",
"w. c #ECC6B9",
"e. c #BBBEC3",
"r. c #C1BFC2",
"t. c #BEC1C4",
"y. c #C2C3C5",
"u. c #C3C9C5",
"i. c #C4C6CA",
"p. c #C6C9CC",
"a. c #CACBCD",
"s. c gray79",
"d. c #D5CECA",
"f. c #D4D2C7",
"g. c #CCCED1",
"h. c #C5C8D1",
"j. c #D4CFD4",
"k. c #CED2D4",
"l. c #CFD4DA",
"z. c #D3D3D5",
"x. c #DBDCD6",
"c. c #D5D6D9",
"v. c #DBD6DB",
"b. c #D6D9DB",
"n. c #DADBDC",
"m. c #D7D8D4",
"M. c #E2CFC5",
"N. c #E7D4C8",
"B. c #F4D9CE",
"V. c #E4DBDB",
"C. c #DEE5DE",
"Z. c #E1E2DE",
"A. c #DDDEE1",
"S. c #D4D7E0",
"D. c #E2DEE2",
"F. c #DEE1E3",
"G. c #E3E3E4",
"H. c #E9E8E6",
"J. c #E5E5E8",
"K. c #E6E9E9",
"L. c #EBEBEC",
"P. c #EAE9E4",
"I. c #F8E8E8",
"U. c #EFF1EF",
"Y. c #FCF5EF",
"T. c #EEEFF1",
"R. c #EDF1F0",
"E. c #F3F4F5",
"W. c #FCF6F2",
"Q. c #F7FFF7",
"!. c #FDFDF5",
"~. c #F5F6F9",
"^. c #F7FBFB",
"/. c #FFFDFE",
"(. c None",
"). c None",
"_. c None",
"`. c None",
"'. c None",
"]. c None",
"[. c None",
/* pixels */
"_._._.~.]._._.!._.!.(.(.(._._._._.]._._._.^.]._._._._._._._._._._._._._._._._._._._._._._._._._._._.",
"^._.^._._.!._._._.^._._._._._._._._._.!._._._.]._._._._._._._._._._._._._._._._._._._._._._._._._._.",
"_._._._.^.E.(.^./._._.^._._._.~.!._._.(._._.(._._._._._._._._._._._._._._._._._._._._._._._._._._._.",
"~._._.~.1.M ..l.^.(.(.^.(.E._._._._._.!._._._._._._._._._._._._._._._._._._._._._._._._._._._._._._.",
"_._./.L.f = = 9 Z %.b.~.(._._._.^.^._._.!._._.!._._._._._._._._._._._._._._._._._._._._._._._._._._.",
"_._._.K.l O * = & : 6 z %.F.~._._._._._._.!._._._._._._._._._._._._._._._._._._._._._._._._._._._._.",
"_._.^.J.d o   o o o + * : 9 ` b._._.~.]._.~._._._._._._._._._._._._._._._._._._._._._._._._._._._._.",
"_.~././.r.2 o   @     o O O % 8 X.L._._._.(._._._._._._._._._._._._._._._._._._._._._._._._._._._._.",
"_._._.J.S N ; @ @   @           * M F._._.!.(.(._.]._.(._.(._.(._._._._._._._._._._._._._._._._._._.",
"_._._.~.' > q @                   & k A._._._._.]._._.!._.!.(.(._._._._._._._._._._._._._._._._._._.",
"_.]._._.~.O.+           @         o O g e.~._._.].]._.]._._.~._._._._._._._._._._._._._._._._._._._.",
"!._._._.].i., @                   * # O 8 ;._.(._._._._._._._._._._._._._._._._._._._._._._._._._._.",
"_._._.^._.~.B @                 + $ - 3 4 8 1.!.!.]._._.~._._.]._._._._._._._._._._._._._._._._._._.",
"_._.!._._._.L.g                 O < p j b B M C._._.]._._._._.~._._._._._._._._._._._._._._._._._._.",
"_._.~._._.(.T.g @ @             & - 1 j B X.{ b g._._._._._._._._._._._._._._._._._._._._._._._._._.",
"_.(._.!._.!._.1.+ X             O $ 1 b %.g.y.l h g._._._._._._._._._._._._._._._._._._._._._._._._.",
"!._._._._._.~.U.g @           . O $ 1 n -.b.J.0.p v H.!.(.(._._./.~.!.Q._._./._.]._._._.!.]._./._._.",
"_._._._._._._.~.G.q X           . $ < a ' t.F.n.*.z ' T.(._.(._.!.].~._._.Q.(._.].~._._.]._.]._._._.",
"_._._.]._._._._._.A .   . . . . $ $ p p S 2.c.J.n.*...s.~._._.!.~.]./.I.N.N.M.V.I._.(.(._._._._._._.",
"_._._._._.]._._._.y.0 < > 4 0 b n b n ) O.t.z.J.n.s.a.j.R.(._.(.^.W.9./ T I W u c +.O. .o.y.~.(._._.",
"_._._._._._._._.^.J.>.>.2.t.u.z.a.0.%.%.=.h.n.H.L.v.D.A.F.E.!._.(.5.~ Y G J I r r x C ..y.I.!.^._._.",
"_._.(.(._._._._._.~.t.i.h.k.k.k.b.l.e.,.1.p.G.H.J.z.c.J.J.J.U.U.w.( P L U D w e s :.Y._.~./._.(._._.",
"_.!._._._._._._.^./.t.t.i.g.c.n.b.l.h.e.e.p.F.K.D.m.n.A.n.n.G.$.c R J D D F y ! f.W.]._._.(._._._._.",
"(._._._._._._./._.^.F.y.g.c.z.c.C.b.l.p.e.y.F.K.H.V.d.z.G.x.n.z.g.7._ i t G Q M.].]./.~.(.!.~._._._.",
"_._._._._._._._._._.~.e.t.p.n.c.v.S.b.c.a.i.n.J.G.J.z.c.c.j.j.j.x.n.d.^ y K 4.(._._._._._._._._._._.",
"_._._._._._._._._._.~.g.p.k.z.c.c.b.c.b.j.a.z.G.G.J.c.c.j.g.m.D.V.n.Z.7.T E B._._.^.!._._.]._.]._._.",
"_._._._._._._._.].!._.E.p.p.h.k.n.n.c.S.S.c.n.n.G.G.c.i.e.j.A.L.C.n.C.f.^ @.!._.(._._.~._._._._._._.",
"_._._._._._._._.].E._._.k.y.p.k.g.c.l.c.n.b.n.G.Z.G.z.<.<.z.D.J.G.Z.m.f.8.P.!._._._.(.!._._.~._._._.",
"_._._._._._._._.].].]._.~.G.h.y.a.g.c.c.b.n.n.n.G.G.b.1.2.n.A.D.n.V.x.s.C.Q.k.].^.n.U._.(._.(._._._.",
"_._._._._._._._.~.].]._._._.A.t.a.p.l.c.b.A.A.D.J.G.F.g.c.G.A.G.n.v.c.p.^.K.>._.c.m.~._.!._._._._._.",
"_._._._._._._._._._._.].~._.^.F.z.y.p.g.z.n.V.G.A.b.n.c.A.J.G.G.G.D.b.b._.s.q.K.z.E._.]._._._._._._.",
"_._._._._._._._._._.]._._._.(.(.~.z.g.g.a.k.c.n.c.g.g.p.n.L.H.G.n.z.S.J.V.| u.t.U._.]._._.!._.]._._.",
"_._._._._._._._._._._._._._._._._.^.L.G.b.a.g.k.i.n.y.-.z.P.Z.Z.z.J.A.A.t.>.x.n.].].]._._._._.]._._.",
"_._._._._._._._._._._._._._._._._._._._.^.E.T.~.E.(.c.g.u.x.c.g.G.G.G.z.z.H.K.L.].].]._._._._._._._.",
"_._._._._._._._._._._._._._._._._.(._._._._._._._.(.A.A.z.C.y.y.n.F.z.b.^._.!.(.]._._._._._._._._._.",
"_._._._._._._._._._._._._._._._._._._.(._._.(.!.^._.J.c.#.<.u.y.z.J.n.T._.~._._._._._._._._._._._._.",
"_._._._._._._._._._._._._._._._._._._._._._._.!._.~.b.[ j X.<.t.G.~._.]._._.]._._._._._._._._._._._.",
"_._._._._._._._._._._._._._._._.!.]._._._._._.]._.E.#.6 z { #.z./._._._.!._.]._._._._._._._._._._._.",
"_._._._._._._._._._._._._._._._._._._._.]._._._.!.F.h 6 } { s.(._.(.~._._.(._._._._._._._._._._._._.",
"_._._._._._._._._._._._._._._._._._._._._.]._._._.] * v { 0._._._._._._._._._.(._._._._._._._._._._.",
"_._._._._._._._._._._._._._._._._._._._._.!._._.T.a # v ) C.!._._._._._._._._._._._._._._._._._._._.",
"_._._._._._._._._._._._._._._._._.(._.(._.(._._.i.> . 8 v z._.(._._._._._._._._._._._._._._._._._._.",
"_._._._._._._._._._._._._._._._._.!._._._._._._.]   * 3 h C.(._._._._._._._._._._._._._._._._._._._.",
"_._._._._._._._._._._._._._._._._._._._._.(._.L.d 2 A d h G._._._._._._._._._._._._._._._._._._._._.",
"_._._._._._._._._._._._._._._._.!._.(._._._._.y.M -.L.] <.E.E._._._._._._._._._._._._._._._._._._._.",
"_._._._._._._._._._._._._._._._.(._.~._._._.W.<.&.D./.v.(.(._._._._._._._._._._._._._._._._._._._._.",
"_._._._._._._._._._._._._._._._._._.(._._._.].a.a._././._._._.(._._._._._._._._._._._._._._._._._._.",
"_._._._._._._._._._._._._._._._._._._.!._.(._.~.E.^././._._.!._._._._._._._._._._._._._._._._._._._.",
"_._._._._._._._._._._._._._._._._._._._._._._._._._._._._._._._._._._._._._._._._._._._._._._._._._.",
"_._._._._._._._._._._._._._._._._._._._._._._._._._._._._._._._._._._._._._._._._._._._._._._._._._."
};
