/* XPM */
static char *ZXhpdA__[] = {
/* columns rows colors chars-per-pixel */
"50 50 249 2 ",
"   c #1F2120",
".  c #27292C",
"X  c #3C3933",
"o  c #120D07",
"O  c #785228",
"+  c #7C5734",
"@  c #7E6233",
"#  c #203240",
"$  c #514A4F",
"%  c #6C5B5B",
"&  c #725D5C",
"*  c #776F5E",
"=  c #6F6852",
"-  c #4A5061",
";  c #5C696B",
":  c #686563",
">  c #757666",
",  c #666877",
"<  c #737471",
"1  c #89621F",
"2  c #865929",
"3  c #805E35",
"4  c #8A6534",
"5  c #8D6D3A",
"6  c #886339",
"7  c #966C38",
"8  c #9C733B",
"9  c #977439",
"0  c #8A652C",
"q  c #A57939",
"w  c #B27A3B",
"e  c #B06F2B",
"r  c #CB7721",
"t  c #8A5E49",
"y  c #896944",
"u  c #976C43",
"i  c #947445",
"p  c #9D7B4B",
"a  c #9A7846",
"s  c #9B7853",
"d  c #8C724D",
"f  c #A47C42",
"g  c #A47D4B",
"h  c #A77947",
"j  c #B27B49",
"k  c #A77E62",
"l  c #8C7D6A",
"z  c #76837C",
"x  c #AC843D",
"c  c #B6863C",
"v  c #AA822B",
"b  c #9F8530",
"n  c #F18C1C",
"m  c #FCA51E",
"M  c #C78A3C",
"N  c #C8933A",
"B  c #D2952C",
"V  c #E89229",
"C  c #D5AB36",
"Z  c #E9A829",
"A  c #E7B533",
"S  c #F0B32F",
"D  c None",
"F  c #F2C82D",
"G  c #9F8347",
"H  c #9F8B50",
"J  c #AC8344",
"K  c #AC844C",
"L  c #AD8C4C",
"P  c #A58449",
"I  c #B38344",
"U  c #B28C45",
"Y  c #B3844A",
"T  c #B38C4B",
"R  c #BB8C4B",
"E  c #BA8946",
"W  c #BA934D",
"Q  c #BB9447",
"!  c #A88857",
"~  c #B58D53",
"^  c #B68D58",
"/  c #A99258",
"(  c #BA9352",
")  c #BD9B5C",
"_  c #B89655",
"`  c #AC914C",
"'  c #B9A259",
"]  c #928A79",
"[  c #868377",
"{  c #BA8E61",
"}  c #AC9367",
"|  c #BA9A66",
" . c #AB9A7A",
".. c #B19272",
"X. c #BCA369",
"o. c #BEA97A",
"O. c #C38D46",
"+. c #C3944D",
"@. c #CB9C4B",
"#. c #C99947",
"$. c #D49A48",
"%. c #C59A53",
"&. c #C79957",
"*. c #D69958",
"=. c #CAA64F",
"-. c #D6AB4A",
";. c #CAA558",
":. c #D7A957",
">. c #DBB75A",
",. c #CFB159",
"<. c #E5A958",
"1. c #E6B959",
"2. c #EAB74C",
"3. c #C69C6C",
"4. c #D09E6D",
"5. c #C2A262",
"6. c #C8A668",
"7. c #D6A966",
"8. c #DCB36C",
"9. c #D8B568",
"0. c #C8AB78",
"q. c #CCB478",
"w. c #D7B777",
"e. c #D5AB73",
"r. c #E3BC6D",
"t. c #E5B965",
"y. c #E3B974",
"u. c #ECB46F",
"i. c #E09B4E",
"p. c #E8C055",
"a. c #EFCB51",
"s. c #DCC27B",
"d. c #CECC79",
"f. c #ECC46C",
"g. c #E7C76A",
"h. c #F3C56A",
"j. c #E5C37B",
"k. c #EAC778",
"l. c #F2CB74",
"z. c #F2CB7B",
"x. c #EFD47A",
"c. c #576E88",
"v. c #5B718C",
"b. c #527190",
"n. c #6A7686",
"m. c #797B83",
"M. c #697A95",
"N. c #5B7EA5",
"B. c #6D7BA0",
"V. c #768B99",
"C. c #75838E",
"Z. c #6584A9",
"A. c #788BA8",
"S. c #7891AC",
"D. c None",
"F. c #5681AC",
"G. c #7496CA",
"H. c #948E89",
"J. c #969689",
"K. c #979B95",
"L. c #898C8E",
"P. c #A99B8E",
"I. c #BAA786",
"U. c #A8A299",
"Y. c #B9AB94",
"T. c #AFAD8E",
"R. c #869CB9",
"E. c #8995AA",
"W. c #9CA4AB",
"Q. c #A5A5A9",
"!. c #ABB4B7",
"~. c #B1B2B2",
"^. c #C9B589",
"/. c #D6BA88",
"(. c #C9B99A",
"). c #D5BC95",
"_. c #C8AA88",
"`. c #E7BA86",
"'. c #C5BCA8",
"]. c #D1BEAB",
"[. c #B9C09E",
"{. c #D9C58B",
"}. c #DBCA98",
"|. c #DBD19A",
" X c None",
".X c #F1CD88",
"XX c #EDD48B",
"oX c #EBD686",
"OX c #F1D48B",
"+X c #F7D789",
"@X c #EACC98",
"#X c #F5CF95",
"$X c #EDDB94",
"%X c #EED59C",
"&X c #E8D898",
"*X c #F2D59C",
"=X c #F5DA97",
"-X c #EEE297",
";X c #F5E399",
":X c #FAE48F",
">X c #D9CAA7",
",X c #CAC5B9",
"<X c #D9CAB6",
"1X c #D6D0AF",
"2X c #E4CCA6",
"3X c #EDDCA3",
"4X c #E9D8A8",
"5X c #F4DBA8",
"6X c #E7DAB5",
"7X c #F6DCB5",
"8X c #E3CDB3",
"9X c #EEE2A6",
"0X c #F4E2AC",
"qX c #F8E4A6",
"wX c #EEE3B6",
"eX c #F7E5B7",
"rX c #91AEC5",
"tX c #A9B6CD",
"yX c #A1AFE0",
"uX c #8296C9",
"iX c #A8C0DA",
"pX c #BECCE6",
"aX c #D8D8D6",
"sX c #D3D0C4",
"dX c #E4D6C3",
"fX c #E8DAC6",
"gX c #FADBC4",
"hX c #E5DDD4",
"jX c #ECE3CB",
"kX c #F6E6C8",
"lX c #ECE3DA",
"zX c #EDE7D7",
"xX c #F7E9D7",
"cX c #F8F3DD",
"vX c #CBD7E6",
"bX c #DCE0E1",
"nX c #E8EAE8",
"mX c #F6ECE7",
"MX c #FBF4EC",
"NX c #FCFCEE",
"BX c #F4F4E8",
"VX c #F9EEF2",
"CX c #FBF6F4",
"ZX c None",
"AX c None",
"SX c None",
"DX c None",
"FX c #F5F8F7",
"GX c #E9EEF4",
/* pixels */
"DXDXDXDXDXDXDXDXDXDXDXDXDXDXDXDXDXAXDXDXDXDXDXDXDXAXFXGXpXyXyXtXtXvXFXDXDXDXDXDXDXDXDXDXDXDXDXDXDXDX",
"DXDXDXDXDXDXDXDXDXDXDXDXDXDXDXDXDXDXDXDXDXDXDXDXDXDXaXS.Z.D.uXG.R.S.W.bXDXAXZXDXDXDXDXDXDXDXDXDXDXDX",
"DXDXDXDXDXDXDXDXDXDXDXDXDXDXDXDXDXDXDXDXDXDXDXAXhXK.c.c.Z.D.G.D.v.c.n.n.~.ZXDXDXDXDXDXDXDXDXDXDXDXDX",
"DXDXDXDXDXDXDXDXDXDXDXDXDXDXDXDXDXDXDXDXDXDXDXnXC.M.Z.c.c.N.D.Z.M.E.S.M.!.ZXAXDXDXDXDXDXDXDXDXDXDXDX",
"DXDXDXDXDXDXDXDXDXDXDXDXDXDXDXDXDXDXDXDXDXDXDXnXL.W.Q.m.n.M.M.b.R.Q.W.L.tXAXDXZXDXDXDXDXDXDXDXDXDXDX",
"DXDXDXDXDXDXDXDXDXDXDXDXDXDXDXDXDXDXDXDXDXDXAXnXL.l U.P.; v.Z.M.U.X < ~.W.SXDXZXDXDXDXDXDXDXDXDXDXDX",
"DXDXDXDXDXDXDXDXDXDXDXDXDXDXDXDXDXDXDXDXDXDXDXaXn.# V.~.; b.D.L.> o $ Q.H.nXDXDXDXDXDXDXDXDXDXDXDXDX",
"DXDXDXDXDXDXDXDXDXDXDXDXDXDXDXDXDXDXDXDXDXDXDXaX%   - K.* % > l J.[ : L.l aXDXDXDXDXDXDXDXDXDXDXDXDX",
"DXDXDXDXDXDXDXDXDXDXDXDXDXDXDXDXSXDXDXBXxXeXkXY.> ] ,X2X;.V Z C g.=XkXdX,XhXDXDXDXDXDXDXDXDXDXDXDXDX",
"DXDXDXDXDXDXDXDXDXDXDXDXDXDXDXDXDXcXwXj.h.r.r.5.).fXgX7.A Z A A F 2.z.eXkXjXMXDXDXDXDXDXDXDXDXDXDXDX",
"DXDXDXDXDXDXDXDXDXDXDXDXDXDXDXDXmX2X/.9.....,.).*X*X*.Z m n S F F D #. X7XjXBXZXDXDXDXDXDXDXDXDXDXDX",
"DXDXDXDXDXDXDXDXDXDXDXDXDXDXDXDXDX'.- : - $ / `.@X`.j r V n m F B N :.#X0XdXBXDXDXDXDXDXDXDXDXDXDXDX",
"DXDXDXDXDXDXDXDXDXDXDXDXDXDXDXDXZXW., H.] n.; / `.u.<.w e r V 1.w.*X7X8X6XlXDXDXDXDXDXDXDXDXDXDXDXDX",
"DXDXDXDXDXDXDXDXDXDXDXDXDXDXDXDXnXm.U.sX] z M.C.] ! ^ 4.*.*.y.@XwX6XlXAXDXZXDXDXDXDXDXDXDXDXDXDXDXDX",
"DXDXDXDXDXDXDXDXDXDXDXDXDXDXDXCX!., '.!.- % C.B.B.n.% t e.`.7XgXkXfXNXDXDXDXDXZXDXDXDXDXDXDXDXDXDXDX",
"DXDXDXDXDXDXDXDXDXDXDXDXDXDXBXaX8XdX}.[ . $ C.A.L.P.T.> * 2XeXkXkXfXZXSXDXAXDXDXDXDXDXDXDXDXDXDXDXDX",
"DXDXDXDXDXDXDXDXDXZXDXSXDXDXhX1XkXkXkXwXT.> < D.> . m.J.% ).kXkXxX6XMXDXZXDXAXDXDXDXZXZXZXSXDXDXDXDX",
"DXDXDXDXDXDXDXDXDXDXDXDXDXAXmX4X9X0XX.,.,.B b * X . J.T.* @XwXxXzX6XBXDXSXSXDXDXSXDXDXDXDXDXDXCXDXDX",
"DXDXDXDXDXDXDXDXDXDXDXDXDXZXcX^..X XN S Z Z F -.T.; J.[.* ).kXkXkX|.6XZXDXDXZXDXZXDXDXDXDXDXZXDXDXDX",
"DXDXDXDXDXDXDXDXZXDXDXAXSXDXDXdXy.<.c B n A a.F g.wX'.J.$ /.eXeXkX^.P.sXnXSXDXAXFXnXMXDXDXDXSXSXDXDX",
"DXDXDXDXDXDXDXDXDXDXSXNXmXcXcXcX}.*.$.e r S F F F /.kXJ.& e.7XkX5X0.~.,XiXtXiXiXG.A.tXDXDXDXDXDXDXDX",
"DXDXDXDXDXDXDXDXDXAXMX9XOXOX.X-XfX0.$.$.j r C A B q.kXfX .8.#X5X Xq.{.{.).Q.R.G.Z.R.vXDXDXZXAXDXDXDX",
"DXDXDXDXDXDXDXDXDXCX0Xk.oXOX+X;X=X8X4.<.y./..X/.q.|.jXkX/.<.`.`.8.k.+Xx.+X}.T.S.R.vXFXZXNXAXSXDXDXDX",
"DXDXDXDXDXDXDXDXNXkXl.a.x.3X-X}.d.).7.1.j.4XeXkXkXwXgX4Xe.<.y.7.f..XoX$X$X:XoXY.S.V.tXDXDXDXDXDXDXDX",
"DXDXDXDXDXDXDXDXNXXXk.g.+X4X%X' { W t..X-X0X6XY.I.^./.e.:.i.$.1.p.k.=XOX;X0XqXqXI.Q.GXGXNXDXDXDXDXDX",
"DXDXDXDXAXDXFXDXxXl.h.oX Xs. .[  .7. X#XqXeXI.6.X.;.9.;.$.M *.<.1.h.z.5XqX9XqXeX-X^.<X'.BXDXAXSXDXDX",
"DXAXDXZXDXDXDXDX*Xa.h.oX,.} < S.} t.XX#X;X9XX.j.0.=.>.9.9.k..X6.:.f.l.OX&X-XeXqX;X{.) ~ ].xXDXmXCXDX",
"DXDXZXDXSXDXDXMXf.p.k.-X6.H.D.tXX.8.{.`.=X@X] > ! 9.g.6.s.-X-XoX{..Xl.z.$X;X9XeXeX;X;.J ^ (.>X>XzXZX",
"DXDXDXDXDXAXDXcXl.p.h.*XX.M.F.R. .`.%X4Xj.3.S.C.4.1.t.`.XX;X9X}.|.0Xj.g.z.=XqX9XeX0Xq.9 8 Y K / lXDX",
"DXDXDXCXMXjXkX6X1.2.l.#X;.; b.M.K.4X&X4X&.a N.P.:.p.l.+X-X$X{.}.1XwX3Xr.f.+XqX9XqX=Xo.y 2 E w R >X6X",
"DXDXZXdX{.0.q.q.2.1.+X#X=.= = : K.2X5X6X/.h , 6.2.>.oX-XoXoX$X&X9X>X0X&Xf.l.oXqX Xs._ g 2 O.I T >XzX",
"ZXAXmX_.' ;.;.+.-.1.l. X>.j x X. X3X7X3X>X4.i -.1.g.OX-X:X+X XoXqX{.4X9X Xt.x. X0.R I O.x W J e.MXDX",
"DXAXhXo.x Y ^ ` -.>.k.j.9.C $.k.=X3X7X4X Xr.=.:.t. X%X$X$XOXXXOX$X&X4X0XOX9.9.5.^ R Q c Q T 8 _.hXZX",
"ZXCX(._ :.w Q 9.f.y.r.k.-.<.<.f.5X0X4X@X Xf.$.-.7.9. X$X=X+XOXoX:X=X4X7X5X6.( T ^ &.T Y h g U ^ sXmX",
"DXdX} K c U t.l.g.8.;.9.>.<.<.g.z.;X=X%X.Xu.O.c %.y.=X$X=XOXOX+Xx. X0.0.w._ ^ &.J g h u 8 7 9 /.MXDX",
"VXkX3.q 7 T +.7.7.T q :.N $.<.f. XOX X Xw.7.-.:.@.:.w. Xw.z.OXs.9.;.W Q x q j Y 8 K u 2 w 9 o.aXDXDX",
"hX_.( Y ^ L 8 h q &.%.=.=.N $.:.y.y.w. X7.+.@.:.:.;.;.6.U E ( e.) P T %.;.@.&.~ p P 9 | 7 ! hXAXDXDX",
"dX{.;._ T K J j ~ &.+.W @.$.@.+.&.;.:.8.8.O.q w O.+.x E +.I q ^ g g Y 7 8 8 J q 5 =.;.5 y ,XDXFXDXDX",
"lX>XX.) ~ J J h | J e Q 8.:.+.( &.Y I E &.R c O.O.E f f j E J J 2 8 g u h h g K _ ,.v + I.CXDXDXDXDX",
"SXlX(.G K ~ T J 9 I &.@.O.I I U R w I I J w j E w q ( ( R E R P P K J T 8 7 4 g T =.j k '.cXAXDXDXDX",
"DXFX1X! L ( %.T { T E x ( ~ 8 W +.O.O.q 7 h 8 q f 3 q U f f 0 h f a ! 8 ( &.h 3 7 7 9 | 2XxXDXDXDXDX",
"SXDXDXlXdX).0.K P g { ^ U x q q L 5.6.Y a g a 7 2 5 8 Q W O 3 ' K i 6 p h j 7 3 p i ! >XMXDXDXZXDXDX",
"ZXDXDXDXDXMXdXI.L 8 ^ 3.! K ( x J x E T 7 3 a p j ( &.J 7 U x 5 + 3 5 i a 2 O g (.8XlXDXDXSXDXZXDXDX",
"DXDXSXSXDXDXMX,X| | ,.,.5.i s | { ^ Y Y T P a i h 7 4 p p L 8 6 u 5 4 i 5 a a _.CXDXDXAXSXDXDXDXDXDX",
"AXDXDXZXZXDXFXnX/.| ! P / P / g d d i p G ! ! ! H s P G 9 4 9 q v 5 y s 0 H (.hXSXDXDXDXZXZXDXDXDXDX",
"DXDXAXDXDXDXDXDXNXlX,X>X^.| ) e.0.) ` _ | d O 6 3 8 i y y q J I G i u Y / <XnXDXSXDXDXDXDXDXDXSXDXDX",
"ZXDXDXDXDXDXDXSXSXDXDXDXhXfX2Xq.;.W ( ^ a @ i } U ` 6 p | 5.6.( i 5 5.w.jXDXDXZXZXDXDXDXDXZXZXDXDXDX",
"DXZXDXDXZXDXDXDXDXDXDXDXDXSXFXNX8X>X(.^.} s | {.2X(.dXhXcXVXmX>X^ U /.MXDXDXDXZXDXDXDXDXDXDXDXDXDXDX",
"DXDXDXDXDXDXDXDXDXDXDXDXDXDXDXDXDXFXNXMXsXU.jXZXDXDXDXDXDXDXDXDXzX'.dXZXDXDXDXDXDXDXDXDXDXDXDXDXDXDX",
"DXDXDXDXDXDXDXDXDXDXDXDXDXDXDXDXDXDXAXDXZXlXZXZXDXDXDXDXDXDXDXDXmXhXZXDXAXDXDXDXDXDXDXDXDXDXDXDXDXDX"
};
