/* XPM */
static char *_9a96af1b6564c238f36c26659556510tJ8oWhwlis2W2QRo[] = {
/* columns rows colors chars-per-pixel */
"50 50 242 2 ",
"   c #063E06",
".  c #094B05",
"X  c #104E05",
"o  c #0D5202",
"O  c #035B01",
"+  c #0C5B03",
"@  c #095608",
"#  c #125D01",
"$  c #135C0C",
"%  c #195806",
"&  c #0D5E12",
"*  c #195D17",
"=  c #235D13",
"-  c #0B6402",
";  c #0B6A02",
":  c #0D640B",
">  c #066606",
",  c #146402",
"<  c #1A6404",
"1  c #136B02",
"2  c #1B6C03",
"3  c #12640B",
"4  c #1B640C",
"5  c #146B0B",
"6  c #1C6C0C",
"7  c #0D7400",
"8  c #0E7902",
"9  c #0D750B",
"0  c #147301",
"q  c #1B7404",
"w  c #167A03",
"e  c #1C7B03",
"r  c #14730B",
"t  c #1C730B",
"y  c #157C0B",
"u  c #1C7D0A",
"i  c #136411",
"p  c #196213",
"a  c #146D13",
"s  c #1B6C13",
"d  c #146519",
"f  c #157412",
"g  c #1C7313",
"h  c #167C12",
"j  c #1D7C12",
"k  c #1D741B",
"l  c #1D7B19",
"z  c #216D04",
"x  c #226A0C",
"c  c #276809",
"v  c #227503",
"b  c #237D03",
"n  c #2A7B03",
"m  c #22740E",
"M  c #2A740A",
"N  c #237C0B",
"B  c #2B7B0D",
"V  c #307E0E",
"C  c #236513",
"Z  c #236D14",
"A  c #226F1C",
"S  c #286B1B",
"D  c #237414",
"F  c #297514",
"G  c #237C13",
"H  c #2A7C13",
"J  c #21721C",
"K  c #2B771D",
"L  c #247B19",
"P  c #2B7E1B",
"I  c #317D1A",
"U  c #367F14",
"Y  c #135A22",
"T  c #1B6F21",
"R  c #267A24",
"E  c #317A28",
"W  c #168302",
"Q  c #1C8302",
"!  c #168B01",
"~  c #1C8B03",
"^  c #1C820C",
"/  c #1D8B0A",
"(  c #15840A",
")  c #1D9103",
"_  c #1B9606",
"`  c #1D8312",
"'  c #1F8A12",
"]  c #198317",
"[  c #1F9216",
"{  c #238404",
"}  c #298403",
"|  c #248B03",
" . c #2B8C03",
".. c #24830C",
"X. c #2B840C",
"o. c #258B0B",
"O. c #2A8C0C",
"+. c #308405",
"@. c #318D04",
"#. c #31820C",
"$. c #318D0C",
"%. c #3F800C",
"&. c #249302",
"*. c #2B9404",
"=. c #259903",
"-. c #2C9C04",
";. c #24920C",
":. c #2C940B",
">. c #26990C",
",. c #2D9B0C",
"<. c #329405",
"1. c #339C04",
"2. c #389B04",
"3. c #33940C",
"4. c #38950D",
"5. c #339B0C",
"6. c #3B9B0C",
"7. c #3C9606",
"8. c #248413",
"9. c #2A8413",
"0. c #248A13",
"q. c #2C8C12",
"w. c #2C8419",
"e. c #278C19",
"r. c #2C8B1A",
"t. c #25821A",
"y. c #338414",
"u. c #328D12",
"i. c #3B8E13",
"p. c #338B1B",
"a. c #398B1B",
"s. c #259213",
"d. c #2C9313",
"f. c #2C9B13",
"g. c #23921A",
"h. c #2C931B",
"j. c #2D9A1C",
"k. c #249D1E",
"l. c #349413",
"z. c #399413",
"x. c #349B13",
"c. c #3A9C14",
"v. c #33951A",
"b. c #3B951B",
"n. c #349B1A",
"m. c #3B9A1A",
"M. c #26A303",
"N. c #2DA303",
"B. c #2BA902",
"V. c #2DA30C",
"C. c #2CAA0B",
"Z. c #25A50A",
"A. c #34A205",
"S. c #3BA304",
"D. c #33AC04",
"F. c #3BAB04",
"G. c #34A30C",
"H. c #3BA40C",
"J. c #35AB0B",
"K. c #3BAB0C",
"L. c #2DB404",
"P. c #3BB202",
"I. c #33B10C",
"U. c #3BB30B",
"Y. c #3CB905",
"T. c #2DA212",
"R. c #2CA21A",
"E. c #27A112",
"W. c #34A413",
"Q. c #3BA414",
"!. c #34AA14",
"~. c #3BAB14",
"^. c #34A319",
"/. c #3BA41B",
"(. c #3BAB1B",
"). c #36A91C",
"_. c #34B514",
"`. c #3CB314",
"'. c #34BD13",
"]. c #3CB913",
"[. c #36B31C",
"{. c #3CB11C",
"}. c #39BB1C",
"|. c #268421",
" X c #2E9B24",
".X c #359524",
"XX c #3A9724",
"oX c #369D23",
"OX c #3A9D23",
"+X c #3BA222",
"@X c #3BAB25",
"#X c #39B225",
"$X c #419A0C",
"%X c #409D15",
"&X c #429D1A",
"*X c #429716",
"=X c #42A60C",
"-X c #43AB0C",
";X c #46AA03",
":X c #43BA03",
">X c #42B20D",
",X c #4AB40C",
"<X c #42BA0C",
"1X c #47B90A",
"2X c #41A513",
"3X c #43AC13",
"4X c #43A41C",
"5X c #44AC1C",
"6X c #4BAD18",
"7X c #43B413",
"8X c #4AB511",
"9X c #45BC14",
"0X c #4BBA13",
"qX c #46B21C",
"wX c #49B31B",
"eX c #45BB1B",
"rX c #4BBC19",
"tX c #52BB19",
"yX c #51BA15",
"uX c #439623",
"iX c #43A422",
"pX c #43AE23",
"aX c #4BAF25",
"sX c #45AA29",
"dX c #49B124",
"fX c #4ABC23",
"gX c #44B424",
"hX c #52B725",
"jX c #56B824",
"kX c #3FC608",
"lX c #45C207",
"zX c #56CC0F",
"xX c #4BC415",
"cX c #46C31B",
"vX c #4DC31B",
"bX c #4CCA1D",
"nX c #40C810",
"mX c #54C81A",
"MX c #55D51C",
"NX c #62DB12",
"BX c #58C726",
"VX c #58D222",
/* pixels */
"t | +.  C =X<...| n t X.>X..< %.` F { i.Z.t 7Xh.v c.[.>X-X!.M x BX$.4 z $ ^ -.u.t C.`./ H.~.2 -.Q d.",
"X.5 2.N Z | (.#.B X.P P m.e t m.d.N 0.% G a.-.l.w.q.x.v.5.iX6.L 1.sXq $.$ , :.,.} x.{ - A.x.t s.P t ",
"7XpX1 - y...=.1.q.8.q 3.z.9.j.>XQ.u h.C q - ~.*.| e 6 :.jXiX:.`.Q.1 8.6Xi.XX7 1.} 2 q 2 A...5.wX*.~.",
" .W.m.t J.&.u 3.S.6.W <.4Xv v.8.3XX.^.N (.G *.pXc.d.N 3X^.4XK.!.Q.b c.A.X.H.f.3.oX} m Z  .*.Y.:.~ qX",
"l.u 6X2XG.h.m.8.; d.@X*.l.3.X.$.q.:.W 0 q.} l.x.X.,.v.' W.8.d.N Z q W.T.E N l 8.W.d.4 t u.s.5Xj.l.3.",
"K...D 5.b k G.*.M { u rX(.pXe.x.q Q.x.% C 6.&.u { W.N.&.d.W.5.E r.w.d.~.c.3.+X2.&.!.6.Q.l.~ jX9XD 6 ",
"F.B t / 5.q.x.*.+X} + XXqXNX~.;.y.(.G.o c /.>.d.:.{ ).K.~.J.L  .j. .e n.;.N.K.3.5 9  .z.0.- b.P.D m ",
"d.5Xv { H..X3.[.E.6.6 p.q.3X..aX5.G.Z.s.b H.>.N.^ D 5Xo.:.3XN ;.`.zX,.;.v.~.T.^ V 0.Q.s !.4.m.E.q...",
"5.-XG 0 4XO.r.q.c.} H d.d.y.l Q.>.n.:.u m.zXN Q.G.o.W.dX..x.G.c.:.+XdX^ _.,.r >.Q._.Z.f.7XW.[ K.3Xu ",
"r.u v.8.1.,XO.| ..5.wXO.q.zX0XG.3X>.>.w.q bX,.&.,.Q.,.o./.l.s.n.t l...Q T.F.b.V.( *.&Xg Q.) ~.&X3.0 ",
"O.{ Q.r.n.>Xd.^.o.e.`.;X{ cX).G.3XU.!.H.@.].x.aX6.O.1.G.x.1.=.1.0.e Q t q  .!.d.G Q.2XO Q.3X-.q.3.q ",
"0 x.,XW s.H.J.N.3X*./.v.r fX&.5.0Xj.{ H.8.~ 5.@X^ : n.(.oX-.fX5.j.d.v.s M x.L.-.x.Q.`.h.x.^.f.Y.q.2 ",
"(.7XVX:.^ ,.G.S.6.l.6 2XF.7./.,.3.x.Q h.G | X.4XpX$.qX,.5.wX@XQ.:.o.Q l.N =.[.7X9X:.a c.9XD.f.` b.^ ",
"fXJ.:X!.&.*.h t.o.H.uX5Xx.y.v.l.v @X-X3.t 1.&.X.l.X.Q /.{ n.,.:.5XW.=.!.fX).g.Q.~.6.g O.h.{ r.c.*.o.",
"W.,.~ o.5.`.d.*.h A.6XtXl...w r G M.Q.e.t.^.@X3.aXu.d.H.{ e S.x.o.x.^.=.B.;.3.7XQ.O.| 5.( } r.qXG.x.",
"v.2.d.q.-.+X0.V.>XW.#XF.6XU.7XQ.q.`.5.U.N.^ q.6.*.=Xl./.&X8.!.q.!.9Xr.m.5X9.5.nX}.5X/.H.).d.K.0XeX`.",
"O.d.T.U.C.9.f z.K.].7X4.7.~.bX0X| ^.` d.U.K.(.=XQ /.e.&.vX!.,.{ 4X<X:.q.x.g H H._.m.H W.bX! r H.p.{ ",
":...&.tXdX{ *.G.W g m.3X/ G B 7X-.H # q O.H.eXn.q.d.f.U.;...e.o.x.>Xo.r :...e n.p.s.W.{ z.x.f.v.8..X",
"6 0 / pXJ.W oXp.6.w.v.(.>.mXw.g W.fX(. .e d.6.M.<.v.-XA.,.v.o.l.;.(.pX9.O.4Xv.~ L b l.l.W.OXu x.0 q.",
"4X5.;.O.&.m.x.7 # q.D.K.d.VXvX} b >._.BXW.7 m.eX,.5.2XQ.A.~...{ :.;.W.:.W.~.9.~ 0.O.X.XXc.d.- N q e.",
" .3.W.9.:.3.,.' G w.*.n.,.*.7Xx.y.4 e eX{ 8.>. .N 5.f.+Xm.b 0.( W.T./ ( mX<X8.).Z.d.q.u r N $.t ~ {.",
"9.N G.q.d.e 5.N o.O.i.e e k v.j.H. Xb 5X .t ( ,.o.w n.q. .o.H.8.W.@XW.| _.D.1./ Q f.>.( R 2 e n.) !.",
"f.7X-.5 6.v :.H.o.| 5.r.q...u 1.U.L.!.:.fXm.t ) N.hXl.*.+XJ.qXl.W | Q.7XR.!.0XW.D W.T., . t x.O.(.5.",
"G.l.F.O.o.3  ...*.G.W.s.-.>X|.S.j.n 8.0.A.9X3.D x.H.-X^ q.O.;.&.o.:.p./.D.T.x.Q...+ , } r.- ..;.^ :.",
"B 2 ;.` ,X,.} /.7XJ.Q.>X0.W.!.7XY.f.d.:.8.d.vX=.h.| ,.W.u d.F.T.3.;.Q.1XyXO.!.G.j.< y.8.v.t 0 '.c., ",
"f.1 O.%Xc.K.N 5.F.j.; | x.H.f.V.x.8.f } 7.v.5.7X8X8Xr.# t -.K.i.N W.~ +X..^ g.o.5.~.5Xl ; 1.u 3.K.N.",
"J.A.v.*.l.( G 6.5X~.u x.1...5.6.:...<.8.` 2X&.Q.} /.0.e N h.f.; i y cXBX%XF.yX4X2 e (.2.8X&.).9.( ,.",
" .G.D.-.x.9.D <.n.F.A.H.o.O.d.H.1.l G.7XN._.>.Z.5.x.W.mXx...K.B.Q.z K.xXo.c.jX&.b.: u u O.W.;.r s H ",
"g ^ K.vX5.K.2X8.| 9X~.:.| e ;.;.5 | | [.U.`.7X:. XN q Q.F.d..X| 7.*.!.u k 8 e 9.~ ;.,...L e n.:.;.o.",
"-.^ d ;X2.| f.3.{ -...0.1.L !.0.H 5.O.o.| O.f.| 1.G.w.^ Q ;.;.Q 0.O o.K.:.m 1 f.,.F.^ 6 X.;.`.-X$...",
"U.,.2 9.d.3X~ q.9.( :.h.{ g 1.,.e d.=Xx.O.d.t.g | &.~ ) | q.5.E.~ f 8.=.d.% 9.! T O.3.t 0.K.`.] &.:.",
" .( o.;.5.m 2.G t x.0 d.N b lXV.s.K.-.h.;.Q ..O.] V K u x.u p.-.| H.q.o.o.< ^ 5.W.1 e.C.V.dX;Xh & G ",
"Q.| f.J.~.~  .:.~ 3X^.:.N F.! 5...Z.T.u.3X{  .u 7XC.D ^ (.F.d.u.o.n.o.*.D.}.;.W 2.!.I.) (.4X..&.{ :.",
"c.:.0.d.8X:.` ' x.G.r <.^ o.d.f.-.W.| j d.&.0.t.-.hX~.u F.xXv. .x.8.w.K.7Xg.d.t o.s.l.2XQ H * I.8...",
", 1 1.G.;.eX*.e *.xX/ r.u :.u O.U.l.b.n.d.<.o.Q 2.m.d.=Xs.T.8X@X| ..s o.o.6 | I e k.d.% , : q 8XO...",
"r.*.8.q. .5.>X5.*.*.x.{ q.&.d.| h e Q _.0 4XQ.y =X/.N -.l O.W.{ u u.v ^ 8.O.| 1 y O.p.q.+.m b.wX(.).",
"o.^ ;.b.{ $.- L P kXn.F A.1.H ~ :.6.{ ) j } 1X-.x.G.5 :.l.H | g o...l.Q.K.e Z 0 q # 7.P.q r 7Xc.G.K.",
"8.w F.f.y { w.2 a ,.5.1 t.A.<.5 o.N O.3.d.| v.X.5.3.Q g q  .+ o.W.6.H.5.!.| S ^ v 8.S.G H.' 0.2.q N ",
",.~.L N  .9. .1.q.9.Q w z Q.s.N 8.:.2X0 pX~.o.G 3X:./ 3.: x.$.~.P.XX.X7X7XL 3 ].f.G p.5.rX..G e O.o.",
"..u 3.*.q.^ t.q b =X{ H 9.{ | 9.4 / f.u e ` q.{ b G.*.:.d.z.f.U.>.t e C.,.#.e 7X!.O.| { n k 1Xm q...",
") l S.5.N 5 *.q =.`.<.q ,.W.1 b q t j :.3.5X3XQ.v 0._.C.:.M.o.x.*.o.0.:.N P H d S.o.~ 2 u 0 x.~.4.  ",
"*.w _ { B N.N.w.0.5 { N X.d.*.oXF # m n.*.W g.5.b 8 I.F.^ K./ o.[.5.wXx.*./ z.q n J t N f...W jX(.t ",
"P ^ O...> ] { e 5 X.q j.s 3.qX*.k 0 } 8.0 :.$.;X[.W.G 5.>._ g.B ,.,XlXe J -.b G.0 g :.q.| ~.bXM.! ^.",
"6 u 3.o.=.e.B ^ r 3.O.| X.q | :.o.X.$.b x.F.c.i G.:X2.d.Q.q u $.W.w.1.R *XG.t :.S.t { n r .X=.;.9...",
"b j.^ b K.0 N m  .;.9 O.- R N ,.9.O 4 H 0./ W.oXQ.' q 0 { Z - m x.H.w.+ 3 O.O.*...t 6.} W u.X.g e u.",
"c.3.r S.o.5 H 7.9.~ w <.n.| H :.q c.j { 2.6.*.:.^ q * G ~ :.{ 4 =Xu H.b.4.3.s.9X0.~ W.s h.b u.X.= X ",
":.# Y x.; p #  .u.q z.l *.*.1.*.G W ^ 6 $ $ 6 X.m @ ; d.Q...J *.*.6.t q q.G.1.r.x.v u.< % % @ p o z ",
"N M + { y., ;.z.O.. o 3.H.;.;.:.c + q ..< , N K.b D 1XD.H.q $.V.5 M 5.1 p u U q b L 3.m i z v X s ;.",
"p , - X.W...x B 4 { $ n &XV.%X! x y.n ) 2 O.f.0 t H.H.o.b.1.N X.O.l.uX2 I f.e q.d...b b.P % C - o.X ",
"o m N $.>.q # # X.| 6 z 1 o.o ^ o m n ,.m X.5.:.N f.W 0 u.~.q , { { V v < s.;.o.2 < 2 b N 2 B $...X "
};
