/* XPM */
static char *aHVudGVyMg__[] = {
/* columns rows colors chars-per-pixel */
"50 50 229 2 ",
"   c #0A0703",
".  c #141208",
"X  c #280707",
"o  c #321500",
"O  c #320C0F",
"+  c #022900",
"@  c #333000",
"#  c #371E22",
"$  c #332D2A",
"%  c #470705",
"&  c #5D0E08",
"*  c #4D1A1A",
"=  c #571919",
"-  c #531805",
";  c #6A0B05",
":  c #750400",
">  c #741404",
",  c #75130A",
"<  c #681816",
"1  c #771715",
"2  c #472700",
"3  c #5C2E12",
"4  c #522A10",
"5  c #7D2A1B",
"6  c #6A2816",
"7  c #492725",
"8  c #4A392F",
"9  c #493B35",
"0  c #5A3331",
"q  c #793B38",
"w  c #772929",
"e  c #1B4812",
"r  c #12530E",
"t  c #284C0F",
"y  c #04740A",
"u  c #137117",
"i  c #2D6F19",
"p  c #344E2A",
"a  c #396736",
"s  c #3C7836",
"d  c #2A6A24",
"f  c #545917",
"g  c #6A4E1C",
"h  c #78641D",
"j  c #574838",
"k  c #4D4230",
"l  c #6A422D",
"z  c #7A4A24",
"x  c #6C483C",
"c  c #7D5B2B",
"v  c #48773A",
"b  c #59723A",
"n  c #666137",
"m  c #6F3E41",
"M  c #52544C",
"N  c #575857",
"B  c #514E45",
"V  c #7C4A47",
"C  c #6C564B",
"Z  c #745249",
"A  c #655A55",
"S  c #7B5557",
"D  c #6C4A4A",
"F  c #5C7B50",
"G  c #75765C",
"H  c #736449",
"J  c #796965",
"K  c #646263",
"L  c #880601",
"P  c #8E1412",
"I  c #971816",
"U  c #91100D",
"Y  c #8D231A",
"T  c #853131",
"R  c #835535",
"E  c #A2523B",
"W  c #876838",
"Q  c #8B703D",
"!  c #854C4A",
"~  c #835147",
"^  c #985C56",
"/  c #8E5051",
"(  c #8F664E",
")  c #98754C",
"_  c #9B7753",
"`  c #926F53",
"'  c #AE7457",
"]  c #826865",
"[  c #957A7B",
"{  c #8D7166",
"}  c #A57767",
"|  c #A47C7C",
" . c #C2765F",
".. c #0E8218",
"X. c #13961A",
"o. c #0A8B16",
"O. c #208015",
"+. c #169525",
"@. c #198F21",
"#. c #268629",
"$. c #289B2B",
"%. c #289A34",
"&. c #369B3C",
"*. c #2E8B37",
"=. c #23A72C",
"-. c #28A836",
";. c #3BAC3D",
":. c #28BA38",
">. c #33B739",
",. c #449B3C",
"<. c #46853E",
"1. c #48A93E",
"2. c #31C03F",
"3. c #3A9543",
"4. c #3DA549",
"5. c #36B946",
"6. c #2CB541",
"7. c #639545",
"8. c #778240",
"9. c #47A448",
"0. c #57A949",
"q. c #41BF42",
"w. c #5DA55C",
"e. c #52B356",
"r. c #68A957",
"t. c #749465",
"y. c #56A160",
"u. c #74AB77",
"i. c #6DAE6B",
"p. c #36C945",
"a. c #3CC551",
"s. c #79C77B",
"d. c #928F5A",
"f. c #B3895E",
"g. c #9A8B77",
"h. c #8F9366",
"j. c #AC8966",
"k. c #B38B68",
"l. c #A18079",
"z. c #B18976",
"x. c #A79B73",
"c. c #AB936C",
"v. c #89B778",
"b. c #B8AE66",
"n. c #C38667",
"m. c #C5AE6A",
"M. c #81D37B",
"N. c #84CE7F",
"B. c #CEC57A",
"V. c #BE7D83",
"C. c #7DD584",
"Z. c #858285",
"A. c #9E9D89",
"S. c #889581",
"D. c #AB8787",
"F. c #BB8985",
"G. c #B3978A",
"H. c #B79A98",
"J. c #A79591",
"K. c #A9A588",
"L. c #A3AC98",
"P. c #B9A79B",
"I. c #BEA489",
"U. c #B7A7A5",
"Y. c #BDB9B8",
"T. c #B9B6B0",
"R. c #8BAB86",
"E. c #C98D89",
"W. c #C69B95",
"Q. c #D0948E",
"!. c #C3A396",
"~. c #C6A9A8",
"^. c #D9A8A5",
"/. c #CFB6B2",
"(. c #E9B4B0",
"). c #88D98C",
"_. c #93D495",
"`. c #8CCE8D",
"'. c #B0C18B",
"]. c #AADBAE",
"[. c #B4EDB4",
"{. c #C7C6B7",
"}. c #D9C4B5",
"|. c #CEC3A1",
" X c #ECC0BF",
".X c #EBCCAF",
"XX c #DBE3BA",
"oX c #DDBEC4",
"OX c #BCF2C5",
"+X c #C5C3C3",
"@X c #D8CAC8",
"#X c #DCD3D5",
"$X c #E8CACA",
"%X c #F6C2C3",
"&X c #F8D6C8",
"*X c #E3CDD4",
"=X c #E4D8D9",
"-X c #FFDDDD",
";X c #C8FDCA",
":X c #D4FFD8",
">X c #C7F7CA",
",X c #E5E5DB",
"<X c #FFE4DA",
"1X c #FDF9DD",
"2X c #EEEBCE",
"3X c #E4DEE0",
"4X c #D9FFE2",
"5X c #E8E7E5",
"6X c #FEE5E5",
"7X c #FFEEEC",
"8X c #F7E8E8",
"9X c #E4FFE6",
"0X c #E3FFEA",
"qX c #EBFFEB",
"wX c #ECFFE6",
"eX c #FEF2ED",
"rX c #F3FEEC",
"tX c #FDFCEB",
"yX c #FBF7E6",
"uX c #FFECF3",
"iX c #EDFFF2",
"pX c #F5F4F4",
"aX c #FEF5F4",
"sX c #F4FBF5",
"dX c #FCFCF5",
"fX c None",
"gX c None",
"hX c None",
"jX c None",
/* pixels */
"jXjXjXjXjXjXjXjXjXjXjXjXjXjXN +XjXhXpXhXjXhXhXsXsXjXsXjXhXjXdXtXdXdXaXdXdXjXdXsXjXjXjXjXjXjXjXjXjXjX",
"jXjXjXjXjXjXjXjXjXsXjXjXjXpX$   Z.fXjXpXfXfXpXdXjXsXjXrXhXtXtXtXdXdXjXjXpXaXjXsXjXjXjXjXjXjXjXjXjXjX",
"jXjXjXjXjXjXjXjXjXjXjXjXgXjX5XK   9 T.jXjXjXdXdXhXjXpXdXwX2X|.1XtXrXdXdXjXjXjXjXdXjXjXjXjXjXjXjXjXjX",
"jXjXjXjXjXjXjXjXjXgXjXjXjXsXjXfXY..   A @XaXeXaXjXjXdXdX1Xx.d.h.XXrXdXjXjXfXjXhXhXhXjXjXjXjXjXdXjXjX",
"jXjXjXjXjXjXjXjXjXjXjXjXsXjXjXjXjX5Xk $ # V.gXgXjXfXdXtXx.Q B.b.c.2XyXaXgXjXjXjXdXjXjXjXjXjXjXdXjXjX",
"jXjXjXjXjXjXjXjXjXjXjXjXjXjXjXpXsXhXA.k D . 9 /.jXjXdXg.` 2 h b.R c.yXdXjXjXsXdXjXdXjXjXjXjXhXhXdXjX",
"jXjXjXjXjXjXjXjXjXjXpXjXgXjXjXjXjXjXyXG J { 7 X V.0XdX{.( k.o 2 4 3 !.dXgXgXjXjXjXjXjXjXjXhXjXhXjXjX",
"jXjXjXjXjXjXjXjXjXjXjXfXjXjXjXgXjXdXyXeXH.[ D j   N ,X~.l ( z.l z ~ 4 @XaXjXdXjXdXjXjXjXjXjXjXjXjXjX",
"jXjXjXjXjXjXjXjXjXjXjXjXjXjXjXjXgXgXjXuX$X~.Z k B M A C z.} ^.0 x I.K.P.sXjXdXjXjXhXjXjXjXjXjXjXjXdX",
"jXjXjXjXjXjXjXjXjXjXjXjXjXjXjXjXjXgXjXgX8XP.P.|.+XM 9 C !.E.^.O 8 {.tXyXdXeXaXjXgXjXjXjXjXjXjXjXjXjX",
"jXjXjXjXjXjXjXjXjXjXjXjXjXjXjXjXjXpXpXjXgXT.A.L.iXT.k Z V T ^.q J.dXpXjXdXdXjXaXjXjXjXjXjXjXjXjXjXjX",
"jXjXjXjXjXjXjXjXjXjXjXjXjXjXjXgXgXjXjXfXjXL.p t.0XS.9 [ E.^ (.F.U.sXdXdXjXdXaXjXjXgXjXjXjXhXjXdXjXjX",
"jXjXjXjXjXjXjXjXjXjXjXjXjXjXjXsXrXdXhXsXsXp r r.>Xy.$ ~././ D.A {.sXjXjXjXjXjXjXjXjXjXjXjXjXjXjXjXjX",
"jXjXjXjXjXjXjXjXjXjXjXjXjXjXjXdXdXjXpXhX4Xu.0.1.C.s k C }.g.    + R.iXiXsXjXjXjXdXjXjXjXjXjXdXjXdXjX",
"jXjXjXjXjXjXjXjXjXjXjXjXjXjXjXjXjXjXjXsXiXC.;.-.u 3.a G b.'.v #.u e OXiXhXfXjXjXhXjXjXjXjXjXjXjXjXdX",
"jXjXjXjXjXjXjXjXjXjXjXjXjXjXjXjXjXgXjXdXiX[.-.p.+.d v v.<.i i 1.a.4.u.4XhXjXjXjXhXsXjXjXjXjXjXjXjXjX",
"jXjXjXjXjXjXjXjXjXjXjXjXjXjXjXdXpXjXjXdXsX:X4.5.-.#.t v.9.$.X.=.2.6.e.:XiXhXjXgXjXhXhXjXjXjXgXgXjXjX",
"jXjXjXjXjXjXjXjXjXjXjXjXjXjXjXjXjXsXjXaXsX4XC.5.5.%.v [.&.X.o.:.a.a.4.OXiXsXpXjXdXdXhXhXjXjXjXjXjXjX",
"jXjXjXjXjXjXjXjXjXjXjXjXjXjXjXhXsXgXjXaXjXiXOX3.*.3.d y.+.:.X.o.-.3.y.:XiXhXjXjXjXjXjXjXjXjXjXjXjXjX",
"jXjXjXjXjXjXjXjXjXjXjXjXjXjXjXgXjXjXjXjXjXiX0X_.9.4.r r X.:.>...e.i.].9XiXjXhXjXdXdXjXjXjXjXjXjXjXjX",
"jXjXjXjXjXjXjXjXjXjXjXjXjXjXjXhXjXjXgXjXjXjXsXqXs.0.v d >.a.+.9.;XwXqXsXjXpXjXjXjXjXjXjXjXjXsXjXjXdX",
"jXjXjXjXjXjXjXjXjXjXjXjXjXjXjXjXhXhXjXgXfXjXpX9X`.,.r.i =.:.-.u :XrXjXsXjXjXgXjXjXjXjXjXjXjXjXsXhXjX",
"jXjXjXjXjXjXjXjXjXjXjXjXjXjXjXjXjXsXjXjXgXpXpXqXs.1.N.<.$.=.p.y ].hXjXjXfXjXgXjXjXjXjXjXjXjXhXjXjXjX",
"jXjXjXjXjXjXjXjXjXjXjXjXjXjXgXhXsXhXjXpXjXjXjX:XM.,._.u...p.p.y u.sXfXgXjXjXgXjXgXjXjXjXjXjXjXhXjXjX",
"jXjXjXjXjXjXjXjXjXjXjXjXjXjXjXjXjXhXjXgXjXdXiX4Xs.;._._.y 2.2.$.a iXsXhXjXjXjXaXgXjXgXjXjXjXjXjXjXdX",
"jXjXjXjXjXjXjXjXjXjXjXjXjXjXjXjXhXjXgXjXdXhXiX4XC.9.*.w.y =.q.1.e ,XsXjXdXjXjXjXjXjXjXjXgXgXgXjXjXjX",
"jXjXjXjXjXjXjXjXjXjXjXjXjXjXjXjXjXjXgXgXdXdXsX0X`.y.r + O.i 0.7.H G eXaXhXjXjXsXdXjXjXjXjXjXjXjXjXjX",
"jXjXjXjXjXjXjXjXjXjXjXjXjXjXjXjXjXjXjXjXtXdXhXsXXXs F t 7.i t @ 3 - F.eXaXhXdXsXdXdXjXjXjXjXjXjXjXjX",
"jXjXjXjXjXjXjXjXjXjXjXjXjXjXjXjXgXjXjXjXjXdXjXdX:XC c d.8.f o 6 , 5 T aXaXjXjXhXsXhXdXjXjXhXjXhXjXjX",
"jXjXjXjXjXjXjXjXjXjXjXjXjXjXjXjXgXjXjXgXdXjXaXtX2Xd.j.) Q g - > I P < %XuXgXjXhXjXhXdXjXjXjXjXjXjXjX",
"jXjXjXjXjXjXjXjXjXjXjXjXjXjXjXjXdXsXjXhXjXsXdXtX.X_ ) f.Q z 6 ; L P ; V.uXgXjXhXdXjXjXjXjXjXjXjXdXjX",
"jXjXjXjXjXjXjXjXjXjXjXjXjXjXjXhXdXdXjXhXjXhXdXtX.X_ ) z z f.Y ; L U P / uXjXjXjXjXdXjXdXdXjXjXjXjXjX",
"jXjXjXjXjXjXjXjXjXjXjXjXjXjXjXjXdXdXsXsXjXsXdXyX|.) f.W R  .E > L I P T -XeXjXjXjXjXhXhXhXjXjXjXjXjX",
"jXjXjXjXjXjXjXjXjXjXjXjXjXjXjXjXjXjXhXjXjXjXdXyX!._ f.) k.'  .> L U I Y &XdXpXsXjXjXhXhXjXjXhXjXjXjX",
"jXjXjXjXjXjXjXjXjXjXjXjXjXjXjXjXjXjXjXjXjXhXgXdXI.` k._ .X} ' 5 , 1 < q 6XjXjXjXjXjXhXhXjXgXjXjXjXjX",
"jXjXjXjXjXjXjXjXjXjXjXjXjXjXjXjXjXgXjXjXjXjXgXgX!.V R } 1X( ^ Q.; & / 6XtXgXgXgXgXjXjXjXjXjXjXjXjXjX",
"jXjXjXjXjXjXjXjXjXjXjXjXjXjXjXjXjXjXjXgXjXgXjXgX@X^.W.&X7X<XE.E.^ ! <XtXaXdXjXgXjXjXjXjXjXgXjXjXjXjX",
"jXjXjXjXjXjXjXjXjXjXjXjXjXjXjXjXjXjXgXjXjXjXfXjX$X| m ^.dXeXW.^.F. XeXjXhXhXgXjXjXjXjXjXjXjXjXjXjXjX",
"jXjXjXjXjXjXjXjXjXjXjXjXjXjXjXjXjXhXdXdXgXjXhXjX6X0 # H.eXdX| V * D.jXpXjXjXjXgXhXhXjXjXjXjXjXjXjXhX",
"jXjXjXjXjXjXjXjXjXjXjXjXjXjXjXjXhXhXdXdXdXhXiXjXgX[ ~.*XaXdXP.7 S oXjXhXjXjXhXjXhXhXsXjXjXjXjXjXhXhX",
"jXjXjXjXjXjXjXjXjXjXjXjXjXjXjXjXsXsXjXdXjXdXhXhXgX#XgX@XjXjX@XH.uX*XgXjXfXjXjXhXjXhXgXjXjXjXjXhXhXhX",
"jXjXjXjXjXjXjXjXjXjXjXjXjXjXjXjXjXjXdXdXsXjXhXhXjX@X3X#XgXjXaX+XgX*XjXjXjXjXhXjXjXjXjXgXjXhXjXjXjXjX",
"jXjXjXjXjXjXjXjXjXjXjXjXjXjXjXjXjXjXaXjXjXjXfXjXjX,X3X3XjXpXjXoX8X#XpXjXjXgXjXjXjXjXgXjXjXhXhXjXjXjX",
"jXjXjXjXjXjXjXjXjXjXjXjXjXjXjXjXgXjXgXgXjXgXjXjXaX8X3XU.#XjXjX5X=X#XaXgXgXjXjXfXjXjXgXjXhXjXjXjXjXjX",
"jXjXjXjXjXjXjXjXjXjXjXjXjXjXjXjXjXjXjXgXgXjXjXpXeX$XS 8 *XjXjXpXJ A #XjXjXjXjXgXjXjXjXjXjXjXjXjXjXjX",
"jXjXjXjXjXjXjXjXjXjXjXjXjXjXjXjXjXgXgXgXjXjXaXaXeXq % = $XgXaXaX] X /.gXaXjXjXjXjXjXjXjXhXjXjXjXjXjX",
"jXjXjXjXjXjXjXjXjXjXjXjXjXjXjXjXhXjXjXgXjXgXjX7X} % T < D.jXaXaXD.X [ aXgXjXfXsXjXjXjXhXhXjXjXjXjXjX",
"jXjXjXjXjXjXjXjXjXjXjXjXjXjXjXjXjXdXdXjXjXsXgXJ * 6 = w W.aXeXaX! % D aXjXsXjXjXjXjXhXhXhXjXjXjXjXjX",
"jXjXjXjXjXjXjXjXjXjXjXjXjXjXjXjXjXhXjXdXjXdXjXJ S l./.6XaXaXjX6Xw < = %XaXjXjXjXjXjXjXjXjXjXjXjXjXjX",
"jXjXjXjXjXjXjXjXjXjXjXjXjXjXjXjXjXjXgXjXdXpXaX7XuXuXaXjXjXjXgX<Xw < = %XaXjXjXjXjXjXjXjXjXjXjXjXjXhX"
};
