/* XPM */
static char *aHVudGVy[] = {
/* columns rows colors chars-per-pixel */
"50 50 236 2 ",
"   c #070502",
".  c #001600",
"X  c #1C1C1A",
"o  c #200900",
"O  c #350A06",
"+  c #3E1300",
"@  c #2A1912",
"#  c #002500",
"$  c #0C3E0B",
"%  c #323300",
"&  c #34332E",
"*  c #550301",
"=  c #4E1D00",
"-  c #5B1819",
";  c #490E06",
":  c #680306",
">  c #7C0C09",
",  c #790700",
"<  c #67150B",
"1  c #781715",
"2  c #73100E",
"3  c #40311C",
"4  c #50311F",
"5  c #513009",
"6  c #7E2B1A",
"7  c #66250C",
"8  c #711824",
"9  c #432C26",
"0  c #55242B",
"q  c #59382C",
"w  c #4A3B33",
"e  c #7A372C",
"r  c #164407",
"t  c #0C5F0E",
"y  c #2A4911",
"u  c #006C01",
"i  c #03780C",
"p  c #087412",
"a  c #187718",
"s  c #217A10",
"d  c #3A4829",
"f  c #33552D",
"g  c #3F733C",
"h  c #336B2E",
"j  c #735219",
"k  c #40711F",
"l  c #4A6113",
"z  c #4C422B",
"x  c #7D5227",
"c  c #6B4636",
"v  c #72562D",
"b  c #4C7435",
"n  c #7B7126",
"m  c #656A3D",
"M  c #485651",
"N  c #5A5A57",
"B  c #4B5049",
"V  c #774544",
"C  c #695349",
"Z  c #795046",
"A  c #685A56",
"S  c #7A5853",
"D  c #724D55",
"F  c #516F44",
"G  c #56764C",
"H  c #686648",
"J  c #7A6A65",
"K  c #716E63",
"L  c #880506",
"P  c #920905",
"I  c #841418",
"U  c #961214",
"Y  c #930E11",
"T  c #A60B15",
"R  c #AB1014",
"E  c #81241C",
"W  c #941A24",
"Q  c #8B3D3D",
"!  c #93252A",
"~  c #846E08",
"^  c #86592B",
"/  c #88533D",
"(  c #A34E39",
")  c #90713B",
"_  c #A03D40",
"`  c #89494A",
"'  c #89594A",
"]  c #985A58",
"[  c #8F4B51",
"{  c #886649",
"}  c #997445",
"|  c #8E7256",
" . c #937549",
".. c #A77659",
"X. c #AB794E",
"o. c #876565",
"O. c #956A62",
"+. c #997B6A",
"@. c #8B7D7A",
"#. c #8F7672",
"$. c #AB786A",
"%. c #AA7573",
"&. c #C5786B",
"*. c #018809",
"=. c #02960E",
"-. c #0B8513",
";. c #079915",
":. c #1E9C1E",
">. c #02AA15",
",. c #179B28",
"<. c #159021",
"1. c #24932B",
"2. c #368937",
"3. c #1AA826",
"4. c #16BA27",
"5. c #15AF2C",
"6. c #22B22F",
"7. c #35A637",
"8. c #2EBB3C",
"9. c #26B937",
"0. c #33B339",
"q. c #29A334",
"w. c #449F3F",
"e. c #519B3C",
"r. c #4FA13D",
"t. c #6A8631",
"y. c #16C728",
"u. c #1BC833",
"i. c #1DD331",
"p. c #24C837",
"a. c #27D538",
"s. c #3B9442",
"d. c #39AA48",
"f. c #37B849",
"g. c #409E40",
"h. c #4C9F5B",
"j. c #4AA64C",
"k. c #4EB14F",
"l. c #719F6C",
"z. c #58B069",
"x. c #6DAB74",
"c. c #35CC41",
"v. c #75D67A",
"b. c #70E373",
"n. c #989455",
"m. c #AB8955",
"M. c #B68659",
"N. c #A49957",
"B. c #BFB448",
"V. c #919579",
"C. c #829870",
"Z. c #B58563",
"A. c #AC827C",
"S. c #AF8171",
"D. c #B6837C",
"F. c #AC936A",
"G. c #80AF79",
"H. c #B0A577",
"J. c #C4AB46",
"K. c #CA8974",
"L. c #D0C655",
"P. c #7BA581",
"I. c #7CD78A",
"U. c #908281",
"Y. c #898E86",
"T. c #B68B8B",
"R. c #A7948B",
"E. c #B89998",
"W. c #AF8A84",
"Q. c #95A688",
"!. c #97BD8A",
"~. c #BAA197",
"^. c #AFA48E",
"/. c #B49FA4",
"(. c #B8BBBA",
"). c #BBAEAD",
"_. c #C48A89",
"`. c #C79D99",
"'. c #D69697",
"]. c #C8938B",
"[. c #C2A393",
"{. c #C1AF8A",
"}. c #C4A6A6",
"|. c #D7A7A6",
" X c #C6B5B5",
".X c #D0B9A3",
"XX c #E7A9AB",
"oX c #E3B4AF",
"OX c #9CCE99",
"+X c #8BCA91",
"@X c #A3CF9A",
"#X c #B0DAB6",
"$X c #B7F1BD",
"%X c #C2C3A5",
"&X c #D0D0B6",
"*X c #FEC3BF",
"=X c #E5C6B1",
"-X c #E9BDC2",
";X c #CAC8C4",
":X c #DACBC9",
">X c #CBD1CC",
",X c #DAD4D5",
"<X c #D9CED1",
"1X c #E5C7CC",
"2X c #F2C3C2",
"3X c #F7D8C9",
"4X c #E4D3D5",
"5X c #E5DADB",
"6X c #F5D4D9",
"7X c #C4F8C6",
"8X c #CBFFD5",
"9X c #DBF9DD",
"0X c #C8EBCD",
"qX c #E3E2C6",
"wX c #FFE2DC",
"eX c #F2E3D3",
"rX c #F0EED7",
"tX c #E0DBE2",
"yX c #DEFFE3",
"uX c #E5E4E3",
"iX c #F2EEEC",
"pX c #FEECEB",
"aX c #FCE6E8",
"sX c #ECFFEB",
"dX c #E4FFE9",
"fX c #F2FEED",
"gX c #FEFCED",
"hX c #FDF7E8",
"jX c #EAFFF5",
"kX c #F5F5F4",
"lX c #FEF5F4",
"zX c #F5FDF3",
"xX c None",
"cX c None",
"vX c None",
"bX c None",
/* pixels */
"bXbXbXbXbXbXbXbXbXbXbXbXbXbXkXbXxXxXbXzXvXvXvXbXbXxXbXzXbXbXbXvXvXcX;XM cXbXbXbXbXbXbXbXbXbXbXbXbXbX",
"bXbXbXbXbXbXbXbXbXbXbXbXbXbXbXbXbXxXxXxXbXzXvXbXbXbXxXzXbXbXkXcXiXY.  & kXbXbXbXbXbXbXbXbXbXbXbXbXbX",
"bXbXbXbXbXbXbXbXbXbXbXbXzXbXxXxXbXgXhX%XqXgXxXkXbXvXbXxXcXbXbX(.&   A uXbXcXbXbXbXbXbXbXbXbXbXbXbXbX",
"bXbXbXbXbXbXbXbXbXbXbXbXbXbXbXxXgXqXn.n.H.hXgXxXbXbXkXlXcX<XN   X (.vXbXvXbXbXbXbXbXbXbXbXbXbXbXbXbX",
"bXbXbXbXbXbXbXbXbXbXbXbXbXbXlXxXeXN.B.L.n N.gXfXvXbXbXlX@.@ & 4 iXbXbXbXbXbXvXbXbXbXbXbXbXbXbXbXbXbX",
"bXbXbXbXbXbXbXbXbXbXbXbXxXxXxXgXF.j J.~ %  .V.zXbXbX X& @ C z ^.xXcXvXxXbXbXbXbXbXbXbXbXbXbXbXbXbXbX",
"bXbXbXbXbXbXbXbXbXbXbXbXbXbXxX}.7 7 = O F.{ %XbXlXV.o 4 O.o.J hXzXbXbXbXbXbXbXbXbXbXbXbXbXbXbXbXbXbX",
"bXbXbXbXbXbXbXbXbXbXcXbXbXcX<X9 ) Q e D.] c ).uXN   c c A.E.xXvXbXcXbXbXbXvXbXbXbXbXbXbXbXbXbXbXbXbX",
"bXbXbXbXbXbXbXbXbXbXbXbXbXcX).R.H.v 0 |.$.D.A N M B z Z |.1XcXbXbXbXbXcXbXbXbXbXbXbXbXbXbXbXbXbXbXbX",
"bXbXbXbXbXbXbXbXvXbXbXbXxXbXpXxX@Xq O XX_.`.S w M ;XoX[.E.iXcXbXcXbXbXbXbXbXbXbXbXbXbXbXbXbXbXbXbXbX",
"bXbXbXbXbXbXbXbXbXbXbXbXxXxXbXlXcXR.` '.` ` C z (.bX~.W. XbXcXcXxXbXbXbXbXbXbXbXbXbXbXbXbXbXbXbXbXbX",
"bXbXbXbXbXbXbXbXcXbXbXbXbXbXbXxXcX XT.XX] _.#.w Y.zXl.d ^.bXlXxXbXcXbXbXbXbXbXbXbXbXbXbXbXbXbXbXbXbX",
"bXbXbXbXbXbXbXbXbXbXbXbXbXbXzXbXbX;XC W.] oX.Xd G 7Xj.t f jXzXbXbXbXvXbXbXbXbXbXbXbXbXbXbXbXbXbXbXbX",
"bXbXbXbXbXbXbXbXbXvXvXbXbXvXvXzXQ.. .   Z.oXC f F v.f.c.x.jXvXvXbXbXbXxXbXbXbXbXbXbXbXbXbXbXbXbXbXbX",
"bXbXbXbXbXbXbXbXbXbXbXbXvXvXvX0Xt a h g {.{.o.f 2.;.4.9.+XzXvXbXbXvXbXbXbXbXbXbXbXbXbXbXbXbXbXbXbXbX",
"bXxXbXbXbXbXbXbXbXbXbXcXbXzXsXx.0.a.0.-.h m V.F <.;.a.5.$XvXxXbXbXcXbXbXbXbXbXbXbXbXbXbXbXbXbXbXbXbX",
"xXbXbXbXbXbXbXxXbXcXbXcXbXvX8Xk.p.y.4.;.,.j.V.z ,.4.u.f.yXcXvXbXbXbXbXbXbXbXbXbXbXbXbXbXbXbXbXbXbXbX",
"bXbXbXbXbXbXxXbXvXbXbXcXcXvX8Xd.p.a.4.=.>.q.&XG ,.p.0.v.dXcXzXbXvXbXbXvXbXbXbXbXbXbXbXbXbXbXbXbXbXbX",
"bXbXbXbXbXbXbXxXvXbXbXbXbXzX9Xh.f.5.*.=.u.,.l.f q.,.s.7XvXbXxXbXbXcXbXbXbXbXbXbXbXbXbXbXbXbXbXbXbXbX",
"bXbXbXbXbXbXbXbXbXbXbXbXbXzXsX#Xz.z.-.8.u.,.$ y d.d.OXsXvXbXbXvXvXbXbXbXbXbXbXbXbXbXbXbXbXbXbXbXbXbX",
"bXbXbXbXbXbXbXbXbXbXbXbXvXzXxXfXkXyXg.3.c.5.b F w.v.sXxXbXbXbXcXbXbXxXbXbXbXbXbXbXbXbXbXbXbXbXbXbXbX",
"xXbXbXbXbXbXbXbXbXbXbXvXbXbXzXbXbX9Xa 6.u.3.h C.w.v.zXxXbXvXbXbXbXbXbXcXbXbXbXbXbXbXbXbXbXbXbXbXbXbX",
"xXbXbXbXbXbXbXbXxXbXbXzXvXbXcXbXbX#Xp p.4.:.g.!.7.v.sXbXkXvXbXbXbXvXbXbXbXbXbXbXbXbXbXbXbXbXbXbXbXbX",
"bXbXbXbXbXbXbXbXbXbXvXbXbXbXbXcXcXP.i a.p.-.C.@X7.v.dXbXvXbXkXbXbXcXbXbXbXbXbXbXbXbXbXbXbXbXbXbXbXbX",
"bXbXbXbXbXbXbXbXbXbXbXxXbXbXbXcXbXh >.i.c.u OXOX7.b.yXvXbXvXbXlXbXbXbXbXbXbXbXbXbXbXbXbXbXbXbXbXbXbX",
"bXxXvXbXbXbXbXbXbXbXbXbXbXxXbXbXuXy 0.a.5.i l.b 7.b.jXvXvXbXxXbXbXcXvXbXbXbXbXbXbXbXbXbXbXbXbXbXbXbX",
"bXbXbXbXbXbXbXbXvXzXbXbXbXbXxXpX#.m e.r.*.1.# r k.I.jXbXlXxXbXcXbXbXvXbXbXbXbXbXbXbXbXbXbXbXbXbXbXbX",
"xXbXbXbXbXbXbXbXbXbXbXbXbXlXlXT.; 5 % r s r.y H b $XvXbXbXcXbXbXbXbXbXbXbXbXbXbXbXbXbXbXbXbXbXbXbXbX",
"bXbXbXbXcXbXbXbXvXbXbXbXbXlXpXQ U Y E + l t.m.^ m rXbXbXbXbXbXbXbXcXbXbXbXbXbXbXbXbXbXbXbXbXbXbXbXbX",
"bXbXbXbXbXbXbXbXbXbXbXbXbXcX-X1 T R L < j n } M.+.eXxXbXlXcXbXvXbXbXbXbXbXbXbXbXbXbXbXbXbXbXbXbXbXbX",
"bXbXbXbXbXbXxXxXvXbXbXvXcXlX&.> U L : < ^ ) X.) | 3XlXxXbXbXvXvXbXbXbXbXbXbXbXbXbXbXbXbXbXbXbXbXbXbX",
"bXbXbXbXbXbXbXbXbXbXvXbXxXlX( Y P L , E ..x x ) m.=XgXxXbXbXvXbXbXbXbXbXbXbXbXbXbXbXbXbXbXbXbXbXbXbX",
"bXbXbXbXbXbXxXvXbXvXvXbXfXwX! T R P , ( K.^ ^ M.} .XgXgXbXbXxXbXbXbXbXbXbXbXbXbXbXbXbXbXbXbXbXbXbXbX",
"bXbXbXvXbXbXbXvXbXbXbXkXxX3XW T T , , &.X.m.} m.m.~.gXxXvXbXxXbXbXxXcXbXbXbXbXbXbXbXbXbXbXbXbXbXbXbX",
"bXbXbXbXbXbXbXvXbXbXcXbXxXpXQ I I 1 E ..$.=XX.Z.{ [.bXvXcXbXbXvXbXcXbXbXbXbXbXbXbXbXbXbXbXbXbXbXbXbX",
"bXbXbXbXxXbXbXbXbXbXcXcXbXlXwX[ < : K.' | hX../ ' [.lXvXbXcXbXbXbXbXbXbXbXbXbXbXbXbXbXbXbXbXbXbXbXbX",
"bXbXbXbXbXbXbXbXbXcXbXcXvXxXxXwXD O._.].eXgX3XT.|.oXbXbXbXbXvXbXbXvXcXbXbXbXbXbXbXbXbXbXbXbXbXbXbXbX",
"bXbXbXbXbXbXbXbXbXbXbXbXbXxXxXxX-XA.|.`.gXgX|.V %.6XcXcXcXbXbXbXbXbXbXbXbXbXbXbXbXbXbXbXbXbXbXbXbXbX",
"bXvXbXbXbXbXbXbXcXbXcXbXbXbXxXxXT.8 [ D.lXxXT.0 w aXcXbXxXkXbXbXbXbXbXbXbXbXbXbXbXbXbXbXbXbXbXbXbXbX",
"vXbXbXbXbXxXbXbXbXvXbXbXbXbXxXbX-X[ - `.xXxX1X}.U.cXcXlXbXxXbXvXbXbXvXbXbXbXbXbXbXbXbXbXbXbXbXbXbXbX",
"bXvXbXbXbXbXbXbXvXvXvXbXbXbXbXcX4XpX~.:XxXzX,XvX,XbXvXbXxXxXvXbXbXcXbXbXbXbXbXbXbXbXbXbXbXbXbXbXbXbX",
"bXbXbXbXbXbXbXbXvXbXvXvXbXbXbXcX<XbX>XkXbXbX>XuX>XvXvXbXbXxXzXbXbXbXbXbXbXbXbXbXbXbXbXbXbXbXbXbXbXbX",
"bXbXbXbXbXbXbXbXbXbXbXvXbXbXbXcX,XiX;XbXvXvXuXtX5XbXbXkXbXbXbXbXbXbXbXbXbXbXbXbXbXbXbXbXbXbXbXbXbXbX",
"bXbXbXbXbXbXbXbXbXbXbXbXbXbXbXiX4X4XtXbXbXtX/.6XaXxXbXbXbXbXbXbXbXbXbXbXbXbXbXbXbXbXbXbXbXbXbXbXbXbX",
"bXbXbXbXbXbXbXbXbXbXbXbXbXxXbX5XD o.cXcXcX,X0 [ 1XgXzXbXbXcXbXcXbXcXbXbXbXbXbXbXbXbXbXbXbXbXbXbXbXbX",
"bXbXbXbXbXbXbXbXbXbXbXbXbXkXcX XO o.pXcXvX:X8 : c gXlXxXbXbXcXbXbXbXvXbXbXbXbXbXbXbXbXbXbXbXbXbXbXbX",
"bXbXbXbXbXbXvXbXbXbXbXxXbXxXcX#.O W.xXvXbXT.1 W * ..lXbXxXxXbXxXbXbXbXbXbXbXbXbXbXbXbXbXbXbXbXbXbXbX",
"vXbXbXbXbXbXbXcXbXbXbXxXbXxXcXV ; V lXlXcX`.8 1 1 - o.xXxXbXbXbXbXbXbXbXbXbXbXbXbXbXbXbXbXbXbXbXbXbX",
"bXbXbXbXbXbXbXbXbXbXbXbXxXbX2X- 1 E aXbXvXxXpXoX%.S J bXlXbXvXbXbXbXbXbXbXbXbXbXbXbXbXbXbXbXbXbXbXbX",
"bXbXbXbXbXbXbXbXbXbXbXbXbXcX2X< > ! pXbXbXbXbXcXcXlXlXcXxXcXbXcXbXcXvXbXbXbXbXbXbXbXbXbXbXbXbXbXbXbX"
};
