/* XPM */
static char *dHJlZQ__[] = {
/* columns rows colors chars-per-pixel */
"50 50 193 2 ",
"   c #14150D",
".  c #1C1D17",
"X  c #26271D",
"o  c #35341F",
"O  c #2C2C23",
"+  c #3B3A2D",
"@  c #333527",
"#  c #3B3E32",
"$  c #363732",
"%  c #413D26",
"&  c #3D402B",
"*  c #444334",
"=  c #494633",
"-  c #4E4A36",
";  c #4E4C3B",
":  c #454239",
">  c #554F34",
",  c #594F33",
"<  c #514E3C",
"1  c #5A553F",
"2  c #53513C",
"3  c #615B3F",
"4  c #4C4C43",
"5  c #4E4D4A",
"6  c #464942",
"7  c #514D41",
"8  c #4E5043",
"9  c #545344",
"0  c #595745",
"q  c #5C5945",
"w  c #54544B",
"e  c #5B564B",
"r  c #5D5A4B",
"t  c #55584D",
"y  c #545553",
"u  c #545954",
"i  c #5B5B53",
"p  c #5D5D5B",
"a  c #635C49",
"s  c #625E54",
"d  c #605F5A",
"f  c #5F625F",
"g  c #5E6055",
"h  c #64614D",
"j  c #6A644E",
"k  c #636154",
"l  c #63635C",
"z  c #6A645C",
"x  c #66695D",
"c  c #6C6B5C",
"v  c #6B6753",
"b  c #716A55",
"n  c #716C5B",
"m  c #72715F",
"M  c #656562",
"N  c #686662",
"B  c #676962",
"V  c #6C6C64",
"C  c #6C6D6B",
"Z  c #716D64",
"A  c #716E68",
"S  c #6F716C",
"D  c #6F7062",
"F  c #737265",
"G  c #797563",
"H  c #73736C",
"J  c #7A766B",
"K  c #7B7A6D",
"L  c #6D6E72",
"P  c #706F74",
"I  c #747472",
"U  c #787772",
"Y  c #767873",
"T  c #7B7B73",
"R  c #767779",
"E  c #7C7D7B",
"W  c #747C7F",
"Q  c #827E74",
"!  c #857D7A",
"~  c #7E8076",
"^  c #7F807A",
"/  c #84816E",
"(  c #838276",
")  c #84847C",
"_  c #88847B",
"`  c #8B8A7D",
"'  c #898977",
"]  c #807F83",
"[  c #7E8183",
"{  c #848483",
"}  c #888784",
"|  c #868885",
" . c #8B8B84",
".. c #878A8C",
"X. c #8C8D8B",
"o. c #918E82",
"O. c #908F8B",
"+. c #8E918B",
"@. c #939185",
"#. c #92928B",
"$. c #9A978C",
"%. c #8D8E92",
"&. c #8D9393",
"*. c #899498",
"=. c #949493",
"-. c #989793",
";. c #949893",
":. c #9A9B94",
">. c #949499",
",. c #95999A",
"<. c #9B9C9B",
"1. c #A09D92",
"2. c #A09F9D",
"3. c #9EA09C",
"4. c #A2A39C",
"5. c #A7A499",
"6. c #9E9FA1",
"7. c #9699A0",
"8. c #9EA1A3",
"9. c #A3A5A3",
"0. c #A6A8A4",
"q. c #ABABA4",
"w. c #A7AAA9",
"e. c #ACADAA",
"r. c #A5A4A9",
"t. c #B0AFAA",
"y. c #AFB0AA",
"u. c #B2B1A5",
"i. c #B2B2AC",
"p. c #ACAEB2",
"a. c #AFB0B2",
"s. c #B4B5B4",
"d. c #B9B7B1",
"f. c #B6B9B3",
"g. c #BABAB5",
"h. c #B4B5BB",
"j. c #B4BABD",
"k. c #BBBCBA",
"l. c #C0BDB4",
"z. c #BEC0BD",
"x. c #C2C3BD",
"c. c #CBC8BF",
"v. c #BBBDC1",
"b. c #C0BFC4",
"n. c #BDC2C5",
"m. c #C3C4C3",
"M. c #C8C7C3",
"N. c #CACAC6",
"B. c #C7CACB",
"V. c #CCCDCC",
"C. c #C6C7C9",
"Z. c #D1CEC9",
"A. c #CFD0CC",
"S. c #D3D2CE",
"D. c #D9D6CF",
"F. c #CECFD3",
"G. c #CFD3D6",
"H. c #D4D4D3",
"J. c #D7D8D4",
"K. c #DADAD5",
"L. c #DCDCDB",
"P. c #D5D7DA",
"I. c #E1DFD9",
"U. c #DEE0DF",
"Y. c #E3E3DE",
"T. c #E8E5DE",
"R. c #D9DDE0",
"E. c #DFE0E2",
"W. c #E4E4E3",
"Q. c #E7E9E5",
"!. c #E9EAE6",
"~. c #E5E6E9",
"^. c #E7E8EB",
"/. c #ECECEC",
"(. c #E8E7E5",
"). c #F3F3ED",
"_. c #EBEDF0",
"`. c #EFF1F2",
"'. c #F2F1F1",
"]. c #F4F5F5",
"[. c #FBFAF6",
"{. c #F7F7F9",
"}. c #F7F9F9",
"|. c #FAFAFA",
" X c None",
".X c None",
"XX c None",
"oX c None",
"OX c None",
"+X c None",
"@X c None",
"#X c None",
"$X c None",
/* pixels */
"OXOXOXOXOXOXOXOXOXOXOXOXOXOXOXOX.XOX|.OXOX.XOXOX.X.X.X.XOXOX.X.XOXOX.XOXOXOXOXOXOXOXOXOXOXOXOXOXOXOX",
"OXOXOXOXOXOXOXOXOXOXOXOXOXOXOXOXOX|.OXOXOXOX|..X.XOXOXOXOXOX.XOX.X.XOXOXOX.XOXOXOXOXOXOXOXOXOXOXOXOX",
"OXOXOXOXOXOXOXOXOXOXOXOXOXOXOXOXOX|.OX|.|..XOX.X.X{..XOXXX$X.XOXOXOXOX|..XOXOX|.OXOXOXOXOXOXOXOXOXOX",
"OXOXOXOXOXOXOXOXOXOXOXOXOXOXOXOXXXOX|.OX.X].^.E.~.P.~.'.'.OXOXOX|.OXOXOXOXOXOXOXOXOXOXOXOXOXOXOXOXOX",
"OXOXOXOXOXOXOXOXOXOXOXOXOXOXOXOXOXOX{.`.^.h.r.h.r.>.p.B.m.].OX.XOXOX|.OXOXOX|.OXOXOXOXOXOXOXOXOXOXOX",
"OXOXOXOXOXOXOXOXOXOXOXOXOXOXOXOXOX^.R.b.h.>.] %.%.P >.r.9.v.~.]._..XOX.X.XOXOXOXOXOXOXOXOXOXOXOXOXOX",
"OXOXOXOXOXOXOXOX.XOXOXOXOX.X.XOX/.2.} { >.<.X.C >.C O.} X. .9.m.0.L.OXOX.XOXOXOXOXOXOXOXOXOXOXOXOXOX",
"OXOXOXOXOXOXOXOXOXOX.X.XOXOXOX.XY.H p ! } =.s. .! l U T { #.{ =.=.f.P./.OXOXOXOXOXOXOXOXOXOXOXOXOXOX",
"OXOXOXOXOXOX|.OXOX$XJ.K.].|.W./.a.Z a N | X.<.r.Z s U A ] } U Q } 2.<.K.OX}.OX|.OXOXOXOXOXOXOXOXOXOX",
"OXOXOXOXOXOXOXOX.X'.9.=.H.|.P.K.r.U Z e d X.V { Q i N ..6.2.O.} 9.f.>.0.E.|.OXOXOXOXOXOXOXOXOXOXOXOX",
"OX|.OXOXOXOXOXOX).M.y.+.P.f.a.i.} U _ < e I R C ` J I ....E d Q 6.k.w.,.w.P.}..X.XOXOXOXOXOXOXOXOXOX",
"OXOX|.OXOXOXOX'.B.+. . .8.! T ! E %. .F ; C ] E n 7 i A L I V A -.m.v.m.v.L.OXOXOXOXOXOXOXOXOX|.OXOX",
"OXOXOXOXOXOXOX'.M.t.+. .S } A e ! %.2.Q n F I  .9 ; 5 5 N A d s =.<.p.~.L._.OXOXOXOXOXOXOXOXOXOXOXOX",
"OXOXOXOX|.OXOX_.!.g.:.:.H H A s d M E ( J z r x D l } N H J e 7 w p =.h.6.L.].'.|.OXOXOXXXOXOXOXOXOX",
"|.OXOXOXOX.XOXW.d.:.`  .| } } V K B B #.Q j a 7 I ) 9.I ) N 7 9 C { ,.>.%.r.s.P.].OXOXOXOXOXOXOXOXOX",
"OXOX|.OXOXOX].V.2.@.J S 4.} #.o.5.` x ] ! a 1 t R r.<.R U 5 U ! H <.3.Y S { ,.i.].|.OXOXOXOXOXOXOXOX",
"|.OXOX.XOX/.J.c.u.u. .Y g.i.@.c @.Q J ! F Z = - H <.) F N L 7.,.&.| W M f R *.w.B.].OX}.OXOXOXXXOXOX",
"OXOXOXOX].k.3.3.+.q.y.T T  .@.x s s F i x ( s ; i p d Q B ,.h.w...^ I Y 0.B.w.v.B.~.OXOX|.|.OXXXOXOX",
"XXOXOXOXW.3.}  .T } -.i.| l V F 9 i ) l i F ` k 4 y <.-.N [ ] I S D ^ 3.H.P.h.P./.'..XOXOXOXOXXXOXOX",
"XXXXOX.XV.g.e.) } } x.J.x.k.K  .) #. .f H i x B @ x >.} E 9.E ~  .^ ^ | s.s.j.B.B.^..X.XOXOX|.XXOXOX",
"|.OXOX].`.H.A.J.T.4.#.0.y.0.` ~ s.A.s.8.z.;.6 O & i =.B =.p.C H [ 8.3.S ^ +.w.g.s.E..X.XOXOX|.OXOXOX",
"OXOX|.k.y.N.).Q.5.~ k.x.0. .~ H J.G.k.B.}.].N.6 # u X.) 5.y Y T j.n.F.C.M.U.U.K./.]..XOXOXOXOXXXOXOX",
"OX|.].V.K.}.].N.` F 5.:.4.q.) V +.:.9.s.V.z.A.S O i l D S y 6.9.n.w.G..X}..X|.OX.X.XOXOX.XOXOXOXOXOX",
"OXOXOXXX[.$Xf.) J $.) Y @.3.3.y.6 5 Y 4.8.;.K g @ T i * x w.B.;.8.8.B.]..X.XOXOX.X.X}.].OXOX.XOXOXOX",
"OXOX|.OX.XOXk.T ' K D H H 3.q.) 8.S 6 u W ..T 4 + K t w w 3.M.p...e.E.^._.}..X.X'.H.m.m._.OXOXOXOXOX",
"OXOXXXOXOX].0.@.=.y.3.| T $.#.5.z.,.S # u p B ) 0 + : ~ i H [ &.[ 8.j.j.8.h.F.A.V.=.s.W./.OX|.OXOXOX",
"OX|.XX|.OX/.4.5.H.9.+.z.z.d.5.y.+.~ ! f & N U ..0 + + 9 D V u S ^ f S ! ~ +.&.&.[  .f.m.^.OX|.OXOXOX",
"XXXXXXOX.X].N.5.g.} ` u.` ~ ` ` ~ x p T e ; x | q 2 * + ; k k l f  .T K B Y 0.;.+.w.s.H.^.|.|.OXOXOX",
"XXXXOXOX.X~.g.K b / @.b < 0 e a v t A ( j 2 # p h = 1 K @.8 x :.' K J h r k D  .&.e.s.W.OXOXOXOXOXOX",
"|.OX|.OX].H.$.r > 3 j h ` 5.1.Q D ' A G n < + ; a 2 a $.) l x i 9 k J Q T V X.V.~.k.k.W.XX|.OX|.OXOX",
"OXOXOX.X!.g.` c 3 > 0 F #.2.3.G 9 G ' k t 7 b v > - 0 F #.=.9.#.k F V &.3.<.k.Q.^.`.}..X|.OX|.OXOXOX",
"OXOX.X].S.:.K j b c Q X.| V t c e = = ; x A < % + > 9 s q.X.:.D.g.3.[ *.*.v.j.R.^.E.{..XOX|.OX|.OXOX",
"OX.XOX|.V.5.o.' h K ' :.i.K x G y i F 8 H 5.G o X + V w K ~ ` f.g.0.4.:.y.e.m.y.0.m.(.}.OXOXOXOXOXOX",
"|.OXOX'.H.M.1.F K $.4.q.T F #.u.:.0.3. .:.D F q   X 3.+.~ @.5.5.e.w.g.m.-.-.0.J./._.'.].|.OXOXOXOXOX",
"OXOX.X].N.4. .( u.N.@.Y u.x.K.!.J.Y.q.) A.x.( ;   $ A.Q.g.o.u.d.i.y.H.A.f.K.H./.OXOXOXOXOXOXOX|.OXOX",
"XX.X.X.XW.D.D.I.).'.x.Y.Q.).!././.S.3.9.Q.$XS.2 . 5 A.Q.M.d.I.i.` 3.K.!.I.S.^.].|.OXOXOX.XOXOXOXOXOX",
"OXXX.XOX|.OXOX[.OXOXOX[.|.|.OX.X/.g.(./.|.XX$XZ O y ^./.H.N.L.K.0.y.K.XXXX|.OXOXOXOXOX.XOXOXOXOXOXOX",
"XXOX.XOXOXOX|.OXOX].XXOXXXXX.XOX}.].OX|.OXOX[.` O 5 /.|.|.XX).XX].}.}.OXOXOXOX].OXOXOXOXOXOXOX|.OXOX",
".XOXOXOXOXOXOXOXXXXXOX{..XOXOX.X|.OX|.OXOXOXXX$.9 4 !.OXOX|.OXOXOX|.OXOXOXOXXXOXOXOXOXOX.X.XOXOXOXOX",
"OXOX.XOXOXOX|.OXXX|.OXOXOX|..XOXOX$XOX|.OXOX[.5.h k /.|.OXOX.XOX|.OX|.OXOXXXOX|.OXOXOXOXOX.XOXOXOXOX",
"OXOXOXOXOXOXOXOXOXOXOXOXOXOXOXOXOX.XOX|.OXOXXXd.v g Q.OXOX.XOXOXOXOXOXOXOXOXOXOXOXOXOXOXOXOXOXOXOXOX",
"OXOXOXOXOXOXOXOXOXOXOXOXOXOXOXOXOX.XOXXXOXOXXXc.b 0 K..XOXOXOX.XOXOXOXOXOXOXOXOXOXOXOXOXOXOXOXOXOXOX",
"OXOXOXOXOXOXOXOXOXOXOXOXOXOXOXOX.XOXOXOXOXOXXXZ.G < H.OXOXOXOX.XOXOXOXOXOXOXOXOXOXOXOXOXOXOXOXOXOXOX",
"OXOXOXOXOXOXOXOXOXOXOXOXOXOXOXOX.XOXXX.XOX.X$XS.b : x..XOXOXOX.XOXOXOXOXOXOXOXOXOXOXOXOXOXOXOXOXOXOX",
"OXOXOXOXOXOXOXOXOXOXOXOXOXOXOXOXOXOXXXOXOXOX[.D.b 7 g.OXOXOXOXOXOXOXOXOXOXOXOXOXOXOXOXOXOXOXOXOXOXOX",
"OXOXOXOXOXOXOXOXOXOXOXOXOXOXOXOXOXOXOXOXOXXXXXc.j a q.OXOXOXXXOXOXOXOXOXOXOXOXOXOXOXOXOXOXOXOXOXOXOX",
"OXOXOXOXOXOXOXOXOXOXOXOXOXOXOXOX|.OXOXOXOXXX[.5., q  .].|.OXXXOXOXOXOXOXOXOXOXOXOXOXOXOXOXOXOXOXOXOX",
"OXOXOXOXOXOXOXOXOXOXOXOXOXOXOXOXOXOXXX|.OXXX).G , a K ).|.XXXXOXOXOXOXOXOXOXOXOXOXOXOXOXOXOXOXOXOXOX",
"OXOXOXOXOXOXOXOXOXOXOXOXOXOXOXOXOX|.OXOXOXOX].H.L.!.].OXOXOXOXOXOXOXOXOXOXOXOXOXOXOXOXOXOXOXOXOXOXOX",
"OXOXOXOXOXOXOXOXOXOXOXOXOXOXOXOXOXOXOXOX].OXXX].XXXXOXOXOXOXOXOXOXOXOXOXOXOXOXOXOXOXOXOXOXOXOXOXOXOX"
};
