/* XPM */
static char *d2FybQ__[] = {
/* columns rows colors chars-per-pixel */
"50 50 236 2 ",
"   c #030500",
".  c #0C170E",
"X  c #22162A",
"o  c #373B31",
"O  c #585648",
"+  c #7F5B5F",
"@  c #5E6A54",
"#  c #71765F",
"$  c #C40E1D",
"%  c #CD232C",
"&  c #FA423A",
"*  c #AD434D",
"=  c #BE566A",
"-  c #BA566C",
";  c #96616B",
":  c #BC6979",
">  c #BF7E78",
",  c #B4666B",
"<  c #D04957",
"1  c #FC4F4B",
"2  c #ED4E52",
"3  c #FF5456",
"4  c #E84A4B",
"5  c #C34C62",
"6  c #C25463",
"7  c #C4526C",
"8  c #CB5B6C",
"9  c #D55967",
"0  c #CC5B74",
"q  c #C85D75",
"w  c #D35E77",
"e  c #CC6275",
"r  c #C3647B",
"t  c #C56A7C",
"y  c #CD6B7E",
"u  c #CD677A",
"i  c #D46B7C",
"p  c #D56779",
"a  c #CB747F",
"s  c #C47C7E",
"d  c #D87679",
"f  c #DE6668",
"g  c #F97679",
"h  c #F07274",
"j  c #9A987D",
"k  c #8E8872",
"l  c #C36F81",
"z  c #CF6E81",
"x  c #D46A81",
"c  c #DB6E84",
"v  c #D76883",
"b  c #CC7385",
"n  c #CE7589",
"m  c #CC7C8C",
"M  c #C67986",
"N  c #D47384",
"B  c #DB7384",
"V  c #D47A86",
"C  c #DC758C",
"Z  c #D47B8B",
"A  c #DA7C8C",
"S  c #D67489",
"D  c #D57B90",
"F  c #DB7992",
"G  c #E37A8E",
"H  c #E17487",
"J  c #FA7885",
"K  c #E47D92",
"L  c #AE9C8E",
"P  c #B9B2AA",
"I  c #CA858C",
"U  c #DC838C",
"Y  c #D5858D",
"T  c #C78596",
"R  c #CE8C94",
"E  c #C98693",
"W  c #D48493",
"Q  c #DB8394",
"!  c #DB8C95",
"~  c #DC8699",
"^  c #D58D9A",
"/  c #DB8B9B",
"(  c #D38A93",
")  c #C99799",
"_  c #D3939C",
"`  c #DC939C",
"'  c #DB9A96",
"]  c #CC9986",
"[  c #FD8A8C",
"{  c #E38395",
"}  c #E28995",
"|  c #EB8895",
" . c #EA859A",
".. c #E38D9B",
"X. c #EB8B9C",
"o. c #E58396",
"O. c #E3939E",
"+. c #E8969E",
"@. c #F19099",
"#. c #F38891",
"$. c #DAA29D",
"%. c #C3B49F",
"&. c #E4A59D",
"*. c #D28DA0",
"=. c #CF9EA2",
"-. c #DB95A3",
";. c #DF9BA3",
":. c #DD9EAB",
">. c #D598A3",
",. c #E18FA1",
"<. c #EB8EA0",
"1. c #E494A3",
"2. c #EB94A3",
"3. c #E49BA5",
"4. c #ED9BA5",
"5. c #E69DAA",
"6. c #ED9CA9",
"7. c #EC94AA",
"8. c #F295A3",
"9. c #F29BA5",
"0. c #F39DAB",
"q. c #FB97A8",
"w. c #EE97AF",
"e. c #C8A6A4",
"r. c #DEA2AD",
"t. c #DDABAD",
"y. c #D7A6A9",
"u. c #DDABB3",
"i. c #D9B1B4",
"p. c #DCBABB",
"a. c #D8B6B8",
"s. c #CAB1AC",
"d. c #E2A2A6",
"f. c #E5A4AD",
"g. c #EBA3AC",
"h. c #E6ACAB",
"j. c #F2A3AD",
"k. c #F7A9AE",
"l. c #ECA5B1",
"z. c #E3ACB3",
"x. c #EDABB4",
"c. c #E5A5B4",
"v. c #F4A6B2",
"b. c #FCA3B3",
"n. c #F3ABB4",
"m. c #F8ABB4",
"M. c #F3AEB9",
"N. c #FBADBB",
"B. c #E3B4BC",
"V. c #EEB3BA",
"C. c #E8B7BA",
"Z. c #F4B1B6",
"A. c #F4B3BB",
"S. c #FCB4BC",
"D. c #F3B9BC",
"F. c #FDBCBE",
"G. c #E9B5A8",
"H. c #D1C9B3",
"J. c #F0C4B5",
"K. c #E5C6B2",
"L. c #E4BAC3",
"P. c #EBBDC2",
"I. c #E8BAC6",
"U. c #F4B6C0",
"Y. c #FDB5C2",
"T. c #F5BCC3",
"R. c #FDBBC4",
"E. c #F5BFC8",
"W. c #FFBDCA",
"Q. c #FFB7CB",
"!. c #DAC6C4",
"~. c #C5C2C9",
"^. c #E5C3C5",
"/. c #EAC2C4",
"(. c #EACACB",
"). c #F3C2C5",
"_. c #FBC2C6",
"`. c #F3C4CA",
"'. c #FEC3CB",
"]. c #F3CCCB",
"[. c #FDCACD",
"{. c #F3CAC6",
"}. c #E6D8CC",
"|. c #FAD1CD",
" X c #E9CED3",
".X c #FDC4D1",
"XX c #F4CDD2",
"oX c #FECAD2",
"OX c #EBD3D4",
"+X c #E7DBDB",
"@X c #FDD3D4",
"#X c #FED6DC",
"$X c #FCDBDB",
"%X c #F4D9D8",
"&X c #E8E3DA",
"*X c #F7E6DC",
"=X c #FDFDDB",
"-X c #FBF4D6",
";X c #FAE9CF",
":X c #EFDFE2",
">X c #FFDCE4",
",X c #EDE4E3",
"<X c #EBECEB",
"1X c #EAECEA",
"2X c #F3E4E4",
"3X c #FDE4E4",
"4X c #F3EBE6",
"5X c #FCE9E6",
"6X c #FEE6EB",
"7X c #F5ECEB",
"8X c #FCECEC",
"9X c #F7E4E8",
"0X c #ECF2ED",
"qX c #E4F4EF",
"wX c #FBFFE2",
"eX c #F3F2EE",
"rX c #FEF2EE",
"tX c #F2FBEE",
"yX c #EFEFF1",
"uX c #F4EEF2",
"iX c #FCEDF3",
"pX c #FFEFFB",
"aX c #E6F5F3",
"sX c #EDF5F3",
"dX c #E4FBF4",
"fX c #EEFAF5",
"gX c #EFF5F9",
"hX c #EDFCFA",
"jX c None",
"kX c None",
"lX c None",
"zX c None",
"xX c None",
"cX c None",
"vX c None",
"bX c None",
/* pixels */
"fXjXxXjXcXxXsXxXxXiXzXfXjXbXhXvXvXxXiXlXjXkXxXxXxXjXjXjXjXbXjXjXjXxXjXjXjXjXjXjXjXjXjXjXjXjXjXjXjXjX",
"kXbXsXcXcXkXxXxXbXvXjXjX3X_ ~ 5.bXkXjXjXkXjXjXsXjXjXjXjXjXjXjXjXjXjXjXjXjXjXjXjXjXjXjXbXcXjXjXjXjXjX",
"kXlXfXvXjXkXbX4X!.~ S l q ! 3.H : lXcXhXxXgXcXjXjXjXxXjXjXkXjXjXjXkXjXjXjXjXjXjXjXjXjXjXjXjXjXjXjXjX",
"kXkXiXfXfX%XM 0 9 d.Y.V O.{ V A.o.Z lXaXbXfXkXrXjXjXjXjXjXjXjXjXjXjXjXjXbXjXjXjXjXjXjXjXjXjXjXjXjXxX",
"uXbXjXfX6Xt / ].q.F.[.2.s &.' 6 q.i t.bXkXkXkXfXjXjXjXjXxXjXjXjXjXjXjXjXjXjXjXjXjXjXjXjXjXjXjXjXjXjX",
"fXkXkXlXi.c | @..XI.`.q.J.=X=XK.6 h.w ,XcXkXcXfXbXjXjXjXjXjXjXjXjXjXjXbXjXjXjXjXjXjXjXjXjXjXjXjXjXjX",
"lXxXjXlX=.e $.G.Y.'._.+.;X;Xk &X$.H } E vXjXyXcXjXjXjXjXjXjXjXjXjXjXjXjXjXbXjXjXjXbXjXjXjXjXbXjXjXjX",
"kXxXjXbXQ u ;X-Xk.R._.$.=X%.  ~.H.u Z.i ,XbXhXxXjXjXjXjXjXjXbXjXjXjXjXjXjXjXjXjXjXjXjXjXjXjXjXjXjXjX",
"kXzXjXvX( d H.P {.R.).9.=XL   X j ! +.{ y.zXfXjXjXjXbXjXjXjXjXjXxXjXjXjXjXjXjXjXjXkXjXjXjXjXjXjXbXjX",
"cXdXcXbX^ B O O =.W.R.k.=X%.. . j ! g.v.7 W kXlXjXjXjXjXjXjXjXjXkXjXjXjXjXxXjXbXjXjXjXjXjXjXjXjXjXjX",
"hXjXiXbX*.p @   + oX_.d.}.=X# o s Y _.A.b.x ^ vXjXjXjXjXjXjXjXjXjXjXjXjXjXjXjXjXjXjXjXjXjXjXjXjXjXjX",
"hXkXbXL.r J k o ; #XR.D.t.J.t., +.R._.R.g.j.t ,XjXjXjXjXjXjXbXjXjXjXjXjXjXjXjXjXjXxXjXbXjXjXjXbXjXjX",
"yXvXz.l Y.S.} - r.oXA.R.Y.Z.2.o.*XT.T.'.0.j.x OXbXbXjXjXjXcXjXjXbXjXjXjXjXbXjXjXjXjXjXjXjXjXjXjXjXjX",
"cXlXl oX@XF.A c.#XP._._.R.oXD.E _.R._.A.j.j.r 7XjXjXjXjXjXjXjXjXjXjXjXjXjXjXjXjXjXjXjXjXjXjXjXjXjXjX",
"sXbXb T.oXx.I rXT.Q.Y.W.Y.Y.oXO.S R.W.A.f.S >.vXjXjXjXjXjXjXjXjXjXjXjXjXjXjXjXjXjXjXbXjXjXjXjXjXjXjX",
"cXbXi.c oXY.N 0.'.'.[.`.oX'.h.8 A R.T.n.+.0 4XjXjXjXjXxXjXjXjXjXjXjXjXjXjXjXjXjXjXjXjXjXjXjXjXjXjXjX",
"vXdXkXN ..|.S.N D 3.3.b.2.( e.* B '.S.4.0 :XgXtXjXjXjXxXkXjXjXjXjXkXjXjXjXxXjXjXjXjXjXjXjXjXjXbXjXjX",
"iXfXlX3Xu 1.|.'.e.) y.5.s.+Xh.% { R.Z.8 C.cXxXjXjXjXjXjXjXjXjXxXjXjXjXjXjXjXjXjXjXjXjXjXjXjXjXjXjXjX",
"kXbX0XvX7Xl c _._.R s ] &.d 2 2 O._.y _ cXbXjXxXjXjXjXjXjXjXjXjXjXjXjXjXjXjXjXbXjXjXjXjXjXjXjXjXjXjX",
"cXjXlXiXjXlX:.0 W.0.$ & 1 3 3 < V.4.e jXbX0XjXkXxXjXjXjXjXjXjXjXjXjXbXjXjXjXjXjXjXbXjXjXjXxXjXjXjXjX",
"0XcXcXxXxXjXzXB.= A.f h g [ g i _.w /.vXgXjXjXcXjXbXjXjXjXjXjXjXjXjXjXjXjXjXjXjXjXjXjXjXjXjXjXjXjXjX",
"bXsXjXjXfXjXkX0X= d U h [ [ f 6.2.t bXxXfXjXjXjXjXjXjXjXbXjXjXjXxXjXjXjXjXjXxXjXjXjXbXjXjXjXjXxXjXjX",
"sXjXfXjXbXsXcX7XV p +.9 g f B Y.9 s.vXcXvXjXjXjXjXjXjXjXxXjXjXjXjXjXxXkXjXjXjXjXjXjXjXjXjXjXjXkXjXjX",
"cXjXkXkXiXjXvXsX~ e 5.j.d } M.Z < (.hXiXkXcXfXkXjXjXjXjXjXkXjXjXjXjXjXjXjXjXjXxXjXjXjXjXjXjXjXjXjXjX",
"jXjXjXkXxXjXkXvX! O.: V Y V w H S %XjXiXbXlXtXcXbXuXcXjXjXkXkXxXkXbXxXuXcXbXxXvXlXjXjXjXlXjXjXsXjXjX",
"jXjXjXjXjXjXjXxXQ N.9.G G { +.z.V eXbXdXuXjXjXcXsXbXlXjX4XjXzXlXvX7XxXbXlXdXcXuXkX7XjXjXjXjXjXjXjXjX",
"jXjXjXjXjXjXzXjXy m.Q.m.D.M.m.j.m sXxXlXcXlXeXjXlX+Xy./ / m E L.0XbXlX<XxXiXvXkXsXxXbXjXjXjXxXjXxXjX",
"jXjXbXjXjXjXvX:X^ t.5.R.T.R.S.Q I bXuXjXxXjXlXkX1.q C z.$X$XR.n u B.bXcXbXgXjXkXbXxXjXfXjXjXjXcXjXjX",
"jXjXkXxXjXjXlX Xf.rXP.f.3.3.f.3.` kXcXvXuXcXlXT  .$X*XU.3.XX3X3X3.S / lXkXaXbXxXjXcXjXkXcXcXkXxXjXjX",
"kXlXxXlXkXjXvXB.i.bXrX6X4X5XrXB.^ bXhXjXbXzXO.7.zX6X$X'.N.^ R.W.)./.3.-.bXvXkXxXxXvXjX0XtXfXjXlXjXjX",
"kXlXkXsXkXkXvXf./.zX6X6XkX9XrXx.-.vXqXkXbX!.8 x.B.E.Q.S.'.g.c._.R.1.%Xu ^.lXkXfXkXkXlXlXzXlXjXkXjXjX",
"jXlXjXjXkXjXvX>.#XlXkXrX8X3XrXB.` bXiXfXxXn D.$XR.,.3.'.R.Q./ N.R.1.D.b.0 tXjXcXlXkXL.E :.>XbXdXjXxX",
"jXcXjXjXjXvXjXR 9XzX8X7XrX5XrXA./ zXxXbXp./ zX#XW.[.4.8.W.l.K 6.g.1.T.R.e B.vXkXvX1.~ W.-.N 6XxXjXjX",
"jXjXjXlXjXcXuX! rXkX6X8X6X7XkX/.R lXlXcXZ D.`.Q..XT.|./ 1.f.} g.5.{ _.F.} W rXvX XD XXf._.9.:.bXjXjX",
"jXxXjXjXjXvX,X! zXzX6X9XiX6X5X].u 7XbXL.u 8.O.-.-.Y.{.4...8.G m.S 2._.N.5.o.XXvX>.m M.b.` 6.E qXxXjX",
"tXbXjX0XkXbX+XN 8XbX8XrXrX8XkXy.e 4XzXC N.'.{.W.m.X.k.g.y i m i ..v.Y./ T.2.r.vXZ #X[._.'.4.e &XbXlX",
"eXcXjXfXjXbX+Xx x.a.@X$XXX/.>.b.K t.M Q A.C._.T.'.m.V v.0 2XeXy +.+.{ f.oX6.b lXc x...-.1.@XS C.bXlX",
"jXxXjXfXjXxX:XA #X(.f.2.2.j.R.[.v.5 K g.2.7.q.T.).v.X.p z.vXsXL.u ^ 6._.R.1.F (.I ].W.W.d.2.+.B.bXjX",
"lXjXjXlXjXjX9XY >X3X].[.oX_.D._.C.X.U j.3.R.5.7.A.M.o.r vXkXbX<Xi j.l.R...n.-.Y | l.b.N.@Xn.: _.bXjX",
"jXcXkXjXjXcXeXZ .X6X'.Y.Y.Q.'._...R.3.Z.v.1.@Xj.o.x.c p.bXsXlXbXU i Z ~ l._.g.7 V g.l...f.'.q }.vXjX",
"jXjXxXcXcXsXbX*.V.rXXXE..XW.R...h.[.1.n..X-.N._.( } F fXcXkXxXbXz.D l.v.'.Y._ v.| 2.U.T.X.v.S 4XjXjX",
"jXjXxXjXcXfXbXI.S @X'.U.M.9.R n._.R.9.Y.W.g.g.A.9.7 ^.zXxXcXfXbXOXx q.3.3./ N.M.1.'.{ T.A.S / zXjXjX",
"jXkXzXsXxXxXjX7Xp 8.M.1.4.c.W._.Y.Y./ W.T.R...n. .Y lXcXsXgXjXjXbXD A R K 0.[.v.g.oXz.9.Z.= L.vXjXjX",
"jXkXxXfXjXbXjXvX!.C 3X%XY.'.T.E.'.r.x.W._.V.G l.t OXzXjXfXxXcXsXvXL.H h.j.b.f./ V.W.m.! d.x jXkXjXjX",
"jXjXjXlXxXkXkXfXvXr.F [.).R.R..Xx.2.R._.M.5.<.x B.fXkXjXsXbXiXlXfXlXF 1.k.2.Z <.l.j.9.` c z.fXcXjXjX",
"lXxXjXjXjXkXcXjXkXlXr.x l.F.W.n.K M.M.b.M.K 7 z.bXxXzXjXiXjXjXxXjXlX6X: v  .2.0.5.b.+.i { bXvXfXjXbX",
"jXjXkXjXfXcXkXxXfXcXxX Xm p i b j.4.0...x n OXlXsXuXfXcXbXjXjXlXjXiXlXkXm y 8.g.c.| 6 M jXvXqXcXjXjX",
"jXeXbXiXlXhXuXcXcXsXlXlXjX{._ A a V S ^ !.6XbXsXcXvXfXiXjXxXjXjXkXjXaXjXvX^.( d x a t.lXcXjXcXjXjXjX",
"jXjXjXjXjXxXkXjXjXjXjXjXjXbXbXbXeXsXjXzXbXxXjXjXjXjXjXjXjXjXjXjXbXjXjXjXjXbXjXjX<XjXbXxXjXjXjXjXjXjX",
"jXjXjXjXjXjXjXjXjXxXjXjXjXjXjXjXjXjXjXjXxXjXjXbXjXjXjXjXjXjXjXjXjXjXjXjXjXbXjXjXjXjXxXkXjXjXbXjXjXjX"
};
